<?xml version="1.0" standalone="no"?>
<!DOCTYPE svg PUBLIC "-//W3C//DTD SVG 20010904//EN"
 "http://www.w3.org/TR/2001/REC-SVG-20010904/DTD/svg10.dtd">
<svg version="1.0" xmlns="http://www.w3.org/2000/svg"
 width="640.000000pt" height="1280.000000pt" viewBox="0 0 640.000000 1280.000000"
 preserveAspectRatio="xMidYMid meet">
<metadata>
Created by potrace 1.15, written by Peter Selinger 2001-2017
</metadata>
<g transform="translate(0.000000,1280.000000) scale(0.100000,-0.100000)"
fill="#e91e63" stroke="none">
<path d="M4295 12794 c-548 -32 -1116 -112 -1530 -215 -140 -35 -417 -126
-519 -171 -431 -187 -675 -407 -677 -612 -1 -94 65 -264 133 -341 49 -55 181
-122 307 -156 l84 -23 72 -151 c210 -439 354 -902 434 -1397 55 -340 80 -735
63 -992 l-11 -165 -35 -46 c-64 -83 -69 -163 -18 -258 65 -121 188 -166 555
-203 89 -9 163 -17 163 -18 2 -1 -28 -300 -30 -303 -1 -1 -51 5 -111 14 -146
21 -649 24 -780 5 -224 -34 -380 -79 -540 -156 -196 -94 -327 -222 -381 -374
-23 -63 -24 -79 -23 -257 l2 -190 -42 -115 c-63 -172 -273 -798 -341 -1015
-515 -1659 -628 -2837 -350 -3640 40 -115 135 -311 194 -397 l45 -67 -22 -48
c-20 -44 -22 -63 -22 -233 0 -184 0 -185 29 -241 145 -287 648 -496 1355 -563
303 -29 770 -19 1102 23 360 46 774 154 1059 277 97 41 92 33 87 151 -5 89 -9
110 -32 149 -35 60 -121 125 -262 201 -114 60 -116 62 -156 130 -284 484 -354
1098 -211 1863 93 502 241 966 644 2030 95 250 190 504 212 564 38 107 40 110
126 195 137 135 182 241 182 436 0 129 -20 219 -70 319 -180 364 -723 706
-1384 872 -98 25 -107 29 -102 48 2 12 10 83 17 158 7 76 16 143 20 150 6 9
61 15 191 19 284 11 535 50 625 98 50 27 76 50 107 96 38 55 35 105 -7 152
l-34 36 75 161 c434 943 624 1619 702 2501 12 132 32 356 46 498 13 143 24
260 24 262 0 2 19 14 43 28 213 125 319 291 302 471 -9 94 -24 125 -87 192
-164 173 -501 258 -1007 252 -91 -1 -188 -3 -216 -4z"/>
</g>
</svg>
