<?xml version="1.0" standalone="no"?>
<!DOCTYPE svg PUBLIC "-//W3C//DTD SVG 20010904//EN"
 "http://www.w3.org/TR/2001/REC-SVG-20010904/DTD/svg10.dtd">
<svg version="1.0" xmlns="http://www.w3.org/2000/svg"
 width="640.000000pt" height="1280.000000pt" viewBox="0 0 640.000000 1280.000000"
 preserveAspectRatio="xMidYMid meet">
<metadata>
Created by potrace 1.15, written by Peter Selinger 2001-2017
</metadata>
<g transform="translate(0.000000,1280.000000) scale(0.100000,-0.100000)"
fill="#fd91b5" stroke="none">
<path d="M3107 12770 c-164 -56 -208 -91 -226 -182 -6 -29 -15 -261 -21 -515
-10 -457 -10 -463 10 -520 19 -51 21 -80 21 -253 0 -193 -51 -1203 -71 -1415
-10 -108 -46 -315 -135 -765 -46 -236 -63 -391 -86 -800 -10 -189 -10 -230 4
-335 24 -173 39 -224 112 -373 36 -73 65 -142 65 -152 0 -10 -39 -62 -87 -116
-271 -301 -298 -353 -297 -574 1 -213 30 -311 127 -443 71 -94 111 -176 110
-225 -1 -48 -115 -273 -212 -418 -105 -160 -176 -224 -421 -384 -41 -26 -145
-108 -230 -180 -85 -72 -178 -146 -206 -165 -28 -18 -67 -52 -87 -76 -52 -62
-240 -312 -317 -424 -82 -118 -225 -377 -254 -458 -12 -34 -27 -71 -34 -83
-21 -40 -121 -349 -136 -427 -32 -155 -48 -333 -36 -414 5 -41 10 -99 10 -130
0 -77 27 -253 50 -321 29 -87 112 -288 155 -372 79 -156 161 -261 320 -410
163 -152 328 -253 530 -323 55 -19 112 -41 128 -48 66 -30 10 -100 -156 -194
-128 -73 -228 -140 -307 -206 -72 -60 -106 -122 -121 -224 -14 -86 0 -152 57
-265 42 -83 52 -95 159 -187 129 -109 202 -157 310 -203 159 -66 435 -133 690
-167 105 -14 203 -17 510 -17 580 1 847 34 1210 151 283 91 451 180 566 300
135 140 180 226 183 348 1 60 -5 84 -38 168 -35 85 -48 106 -97 151 -95 89
-240 165 -381 201 -72 19 -210 109 -205 135 1 10 51 31 142 61 210 69 326 115
455 179 421 211 663 508 755 925 14 66 36 154 48 195 20 68 22 97 21 300 0
130 -5 259 -13 305 -13 83 -131 498 -154 544 -37 72 -147 272 -172 311 -72
115 -222 297 -345 420 -148 149 -274 255 -480 405 -186 135 -267 202 -399 330
-165 161 -227 243 -320 426 -45 87 -81 171 -81 186 0 16 7 60 15 98 13 65 18
74 69 120 105 95 162 204 186 355 14 89 12 210 -4 301 -22 124 -53 174 -217
346 -81 84 -155 170 -164 190 -24 49 -17 86 43 228 128 304 140 493 67 1060
-14 105 -43 296 -65 425 -22 129 -51 312 -65 405 -14 94 -34 229 -45 300 -31
203 -39 301 -50 626 -6 167 -15 376 -20 464 -5 88 -9 239 -10 334 0 174 0 175
27 214 27 39 27 41 31 234 3 108 1 359 -3 560 l-7 364 -64 45 c-127 91 -203
102 -347 54z m53 -55 c0 -34 73 -29 119 6 32 25 54 24 88 -6 l28 -25 -29 -24
c-18 -15 -46 -25 -77 -28 -26 -3 -60 -13 -76 -23 l-28 -18 29 -10 c22 -7 45
-5 96 12 46 15 85 21 126 19 l59 -3 -30 -17 c-49 -26 -176 -48 -283 -48 -106
0 -185 17 -224 50 -26 22 -16 25 31 9 27 -9 36 -9 48 4 12 12 13 19 4 36 -16
29 -7 39 53 66 53 24 66 24 66 0z m296 -247 c23 -128 -5 -461 -41 -497 -31
-32 -432 -24 -486 9 -11 8 -14 48 -14 222 1 117 4 230 8 250 l8 38 217 -1
c119 -1 233 4 252 9 19 5 38 10 42 11 3 1 10 -18 14 -41z m-16 -563 c0 -32
-38 -37 -270 -33 -177 2 -232 6 -242 17 -11 11 -4 12 47 5 97 -14 333 -9 385
9 59 20 80 20 80 2z m-392 -101 c80 -14 112 -15 220 -5 70 6 137 14 148 17 20
5 23 -1 39 -69 10 -41 15 -81 12 -90 -6 -16 -91 -49 -101 -39 -3 3 -6 18 -6
33 0 32 -23 59 -51 59 -23 0 -45 -21 -88 -84 -43 -61 -49 -59 -88 29 -15 33
-23 41 -51 43 -31 3 -34 1 -61 -58 l-28 -62 -13 45 c-7 25 -20 53 -30 62 -15
14 -19 13 -44 -6 -31 -24 -43 -20 -27 9 6 12 11 41 11 66 0 65 8 79 39 72 14
-3 68 -13 119 -22z m314 -295 l26 -26 6 -494 c3 -272 10 -530 16 -574 21 -179
24 -503 5 -483 -9 9 -46 513 -44 603 1 55 1 106 0 113 -2 21 -31 13 -40 -12
-5 -12 -14 -149 -21 -303 -10 -254 -21 -387 -34 -400 -6 -6 -20 47 -46 174
-16 84 -20 139 -20 325 0 234 -4 268 -26 268 -19 0 -23 -24 -28 -215 -4 -168
-46 -520 -66 -554 -5 -9 -10 -14 -10 -11 -17 148 -23 239 -28 442 -7 258 -14
293 -46 247 -11 -16 -16 -45 -16 -89 0 -87 -17 -307 -34 -445 -15 -116 -30
-165 -52 -165 -30 0 -29 92 2 152 11 22 12 45 3 128 -7 78 -6 154 5 323 8 122
20 310 26 417 20 363 31 503 42 523 5 11 22 30 36 42 14 12 31 38 37 56 17 48
36 46 70 -8 28 -44 33 -48 70 -48 39 0 41 1 75 67 l35 67 15 -47 c9 -26 27
-59 42 -73z m-333 -1547 c6 -41 18 -87 26 -102 8 -16 15 -36 15 -45 0 -17 45
-21 55 -5 4 6 19 61 35 123 15 61 28 100 29 86 1 -15 12 -60 25 -100 13 -41
27 -89 31 -108 l7 -34 -108 6 c-60 3 -124 12 -142 18 -29 10 -33 15 -28 38 3
14 8 62 12 106 10 134 25 140 43 17z m349 -130 c-3 -24 -8 -27 -43 -30 -34 -2
-38 0 -24 10 22 18 39 52 39 80 1 22 1 22 16 -5 8 -15 14 -40 12 -55z m83 5
c-17 -17 -25 21 -10 51 l13 27 4 -34 c2 -18 -1 -38 -7 -44z m-520 -72 c23 -9
96 -21 160 -27 101 -10 133 -10 231 5 62 9 123 17 136 17 29 0 29 -30 1 -56
-19 -17 -39 -19 -247 -19 -196 0 -235 3 -282 19 -64 21 -85 38 -77 60 8 20 23
20 78 1z m-46 -105 c4 -6 0 -39 -9 -73 -8 -34 -20 -105 -26 -157 -6 -52 -20
-147 -30 -210 -37 -229 -49 -411 -59 -907 -7 -337 -11 -396 -25 -417 -19 -29
-37 -26 -57 11 -18 34 -18 494 0 703 19 226 60 537 81 620 10 41 26 118 35
170 38 215 67 298 90 260z m579 -22 c7 -13 24 -81 36 -153 12 -71 39 -229 60
-350 71 -400 100 -669 100 -929 0 -188 -13 -277 -46 -314 -31 -36 -60 -21 -57
29 1 19 6 117 12 219 13 239 13 455 1 600 -6 63 -38 274 -71 469 -51 301 -69
382 -97 433 -3 5 14 13 40 17 4 0 14 -9 22 -21z m-449 -24 c49 -11 52 -18 44
-81 -32 -234 -46 -461 -59 -993 -16 -660 -32 -760 -114 -722 -52 23 -59 58
-64 293 -7 366 46 1098 103 1409 19 108 21 112 42 106 10 -3 32 -8 48 -12z
m236 -335 c12 -337 7 -1326 -8 -1390 -5 -25 -22 -48 -52 -73 -49 -41 -50 -40
-102 26 l-31 38 1 273 c2 442 20 987 42 1216 11 118 21 217 23 219 8 7 101 18
108 13 4 -3 12 -148 19 -322z m118 314 c5 -10 16 -67 25 -128 9 -60 32 -193
51 -295 39 -214 73 -499 82 -685 13 -285 -52 -675 -112 -675 -10 0 -27 22 -43
58 l-27 57 -6 580 c-6 482 -10 615 -28 785 -24 238 -26 291 -9 308 18 18 56
15 67 -5z m-49 -1761 c0 -27 71 -132 89 -132 25 0 35 10 74 73 20 31 41 57 47
57 6 0 18 -16 27 -35 17 -35 17 -35 -13 -66 -49 -53 -75 -58 -296 -65 -280 -9
-425 10 -488 62 -36 31 -38 50 -8 81 29 31 41 29 95 -12 60 -46 83 -45 125 6
l34 40 63 -70 c34 -39 68 -71 74 -71 6 0 44 34 84 75 73 77 93 89 93 57z
m-177 -219 c247 -4 315 -12 235 -27 -66 -12 -335 -18 -420 -9 -48 5 -97 5
-109 1 -25 -9 -39 4 -39 36 0 15 5 17 33 11 17 -4 152 -9 300 -12z m-17 -86
c110 0 219 4 242 8 49 8 58 -9 15 -26 -32 -12 -497 -8 -525 5 -34 16 -19 28
25 20 23 -4 132 -7 243 -7z m364 -70 c0 -12 9 -40 20 -62 24 -46 22 -48 -69
-67 -83 -16 -425 -16 -536 0 -102 16 -113 26 -86 80 11 22 25 43 31 47 5 3 69
-1 142 -10 179 -20 244 -19 368 9 133 30 130 30 130 3z m124 -180 l29 -23 -49
-21 c-74 -32 -197 -45 -434 -46 -179 0 -236 3 -338 22 -118 21 -142 21 -142 1
0 -33 93 -56 341 -84 121 -14 150 -14 260 -1 165 19 280 41 358 68 l63 22 39
-45 c69 -79 100 -131 87 -147 -21 -26 -52 -9 -90 48 -39 60 -69 76 -112 60
-29 -12 -75 -85 -83 -135 -3 -20 -11 -36 -19 -36 -7 0 -36 27 -66 61 -59 69
-99 93 -134 85 -13 -4 -55 -36 -93 -71 -38 -36 -71 -65 -74 -65 -3 0 -28 29
-56 65 -63 80 -89 85 -154 27 -65 -59 -108 -92 -117 -92 -5 0 -12 21 -15 48
-19 135 -61 168 -106 81 -18 -37 -62 -69 -92 -69 -19 0 -47 43 -47 73 0 30 42
88 103 145 55 50 65 51 222 22 176 -32 495 -25 602 14 55 21 84 19 117 -7z
m115 -276 c65 -116 95 -128 130 -50 20 43 24 42 35 -6 29 -120 23 -285 -16
-407 -32 -104 -54 -112 -88 -32 -29 66 -48 60 -121 -38 -34 -46 -64 -89 -66
-95 -9 -24 -19 -13 -57 67 -21 43 -47 86 -57 96 -17 15 -19 15 -43 -11 -13
-14 -43 -63 -67 -108 -54 -106 -58 -110 -76 -95 -20 16 -53 82 -78 158 -18 51
-27 66 -44 68 -32 5 -68 -22 -91 -69 -12 -22 -27 -42 -34 -45 -8 -3 -16 -17
-19 -32 -4 -15 -17 -40 -30 -56 l-24 -29 -51 94 c-60 112 -88 142 -128 137
-25 -3 -31 -11 -51 -68 -41 -113 -64 -114 -128 -6 -36 63 -63 85 -85 71 -5 -3
-10 -15 -10 -25 0 -37 -18 -29 -38 18 -37 87 -54 172 -49 247 6 84 47 219 67
222 9 2 29 -19 48 -47 47 -73 68 -68 126 33 15 27 33 46 39 44 7 -2 18 -23 25
-48 24 -82 44 -114 76 -117 24 -3 39 7 100 72 39 42 78 76 87 76 21 0 41 -24
73 -87 31 -63 65 -89 95 -74 11 6 37 32 57 58 48 60 106 123 114 123 4 0 37
-38 74 -85 68 -85 103 -108 130 -86 7 6 27 48 45 94 34 91 57 130 74 124 6 -2
31 -40 56 -86z m-854 -612 c48 -69 116 -139 134 -139 21 0 63 49 98 114 21 38
43 71 48 73 6 1 28 -27 50 -63 44 -73 78 -103 128 -111 40 -6 49 3 97 100 19
39 40 73 47 75 6 2 28 -29 48 -68 27 -49 45 -72 61 -76 30 -8 44 4 101 83 45
64 66 76 77 47 26 -69 -30 -123 -168 -160 -173 -46 -832 -41 -881 7 -5 5 2 9
22 9 42 0 53 18 65 105 6 41 14 75 17 75 3 -1 28 -33 56 -71z m-262 9 c9 -18
26 -48 38 -67 22 -32 22 -33 2 -23 -31 17 -83 80 -83 102 0 31 25 24 43 -12z
m201 -209 c109 -19 145 -21 356 -15 129 3 290 9 358 12 106 6 122 5 117 -8 -3
-8 -23 -24 -43 -36 -21 -12 -46 -30 -56 -41 -20 -22 -22 -20 50 -45 6 -3 49
-78 95 -168 106 -207 172 -306 298 -443 55 -60 99 -110 97 -112 -1 -2 -25 8
-52 21 -27 12 -70 31 -96 41 -71 26 -122 76 -176 173 -59 105 -82 155 -132
289 -41 112 -66 157 -80 148 -6 -4 -10 -16 -11 -28 0 -12 -11 10 -23 48 l-22
70 -334 5 c-321 5 -337 6 -390 28 -72 31 -100 49 -100 67 0 19 0 19 144 -6z
m-68 -143 c16 -42 -208 -500 -267 -548 -37 -29 -189 -102 -189 -90 0 4 32 47
70 96 113 142 242 361 280 476 12 36 27 68 33 72 20 13 67 9 73 -6z m344 -14
c63 -8 76 -29 40 -67 -29 -31 -39 -114 -41 -345 0 -102 -4 -195 -7 -208 -5
-17 -25 -31 -72 -51 -57 -24 -170 -87 -222 -124 -24 -16 -53 2 -117 76 -34 39
-51 67 -51 85 0 15 38 106 84 202 79 166 136 311 136 350 0 9 -9 29 -20 43
-19 24 -20 26 -3 36 20 11 186 13 273 3z m374 -14 c51 -243 166 -578 206 -603
21 -13 7 -38 -65 -114 l-75 -79 -113 67 c-155 93 -200 109 -184 67 8 -19 238
-172 282 -186 42 -14 37 -30 -8 -30 -23 0 -62 20 -142 75 -61 41 -122 85 -138
97 -24 20 -31 21 -60 10 -36 -13 -82 -15 -110 -4 -13 6 3 17 62 45 56 26 80
43 85 59 3 13 9 154 12 315 l7 292 36 4 c20 2 73 4 118 5 78 2 83 1 87 -20z
m-317 -110 c-3 -8 -6 -5 -6 6 -1 11 2 17 5 13 3 -3 4 -12 1 -19z m-392 -63
c-8 -21 -18 -35 -21 -32 -3 3 2 22 11 42 10 19 20 34 22 31 2 -2 -3 -21 -12
-41z m945 -298 c17 -35 52 -87 77 -116 25 -28 43 -54 41 -57 -3 -2 -22 -5 -44
-7 l-39 -2 -6 50 c-4 28 -21 75 -38 105 -27 49 -39 90 -27 90 3 0 19 -28 36
-63z m-1158 -149 c8 -7 41 -52 72 -100 86 -132 107 -141 209 -84 34 19 76 40
92 45 l30 11 -29 -24 c-16 -13 -69 -45 -118 -71 -101 -53 -99 -54 -153 30 -18
29 -61 82 -95 118 -53 58 -67 67 -97 67 -20 0 -32 4 -28 10 9 14 98 12 117 -2z
m1443 -85 c37 -22 8 -23 -56 -2 -70 23 -89 35 -89 54 0 12 95 -22 145 -52z
m-1681 26 c-7 -12 -66 -39 -86 -39 -20 0 8 23 45 37 42 15 50 15 41 2z m160
-67 l-6 -58 56 -52 c52 -47 55 -52 37 -62 -11 -5 -35 -10 -55 -10 -19 0 -38
-5 -41 -11 -11 -17 44 -117 67 -125 17 -5 29 2 57 35 20 23 44 41 53 41 10 0
26 -21 42 -56 14 -30 35 -69 47 -85 35 -50 11 -47 -35 4 -26 27 -53 47 -65 47
-33 0 -76 -50 -106 -123 -16 -37 -30 -66 -32 -63 -2 2 1 36 8 75 15 98 12 103
-58 99 -65 -3 -64 -1 -48 -108 6 -36 4 -49 -9 -59 -21 -17 -20 -41 3 -137 27
-111 32 -144 22 -144 -18 0 -69 156 -92 283 l-12 67 -57 0 c-58 0 -79 12 -93
52 -6 18 -3 22 42 56 28 21 22 38 -17 53 l-25 10 35 37 c46 49 52 68 28 92
-11 11 -24 20 -30 20 -18 0 -11 39 9 50 11 5 41 10 68 11 71 1 95 11 121 49
21 32 67 70 85 70 4 0 5 -26 1 -58z m1246 55 c0 -2 -16 -19 -37 -38 -37 -35
-37 -23 0 19 18 19 37 29 37 19z m-714 -43 c-11 -7 -22 -12 -25 -9 -2 3 4 12
15 19 10 8 21 12 24 9 3 -2 -4 -11 -14 -19z m1182 -39 c8 -8 -39 -5 -82 5 -21
4 -45 15 -53 23 -11 11 1 10 58 -5 40 -10 75 -20 77 -23z m-2104 -18 c-4 -11
-18 -17 -39 -17 -49 0 -61 -20 -47 -81 7 -28 12 -67 12 -87 0 -111 89 -359
181 -502 131 -207 166 -308 156 -455 -7 -97 -28 -162 -75 -234 -57 -85 -207
-201 -262 -201 -22 0 -26 20 -7 39 8 8 12 45 12 114 -1 153 -44 265 -192 504
-89 144 -110 195 -124 299 -21 157 2 234 112 381 56 74 79 114 79 134 0 33 49
74 135 115 50 24 71 21 59 -9z m961 3 c-19 -36 -63 -66 -112 -75 -54 -10 -50
0 16 35 33 18 68 41 77 51 26 29 36 23 19 -11z m848 0 c115 -84 114 -83 177
-66 64 18 100 20 100 6 0 -5 -10 -30 -22 -55 -28 -57 -19 -68 64 -72 93 -6
105 -10 112 -38 9 -35 48 -52 81 -35 21 11 32 10 86 -14 70 -32 94 -24 52 16
-36 34 -232 158 -250 158 -7 0 -13 -9 -13 -20 0 -23 -41 -28 -58 -7 -13 15 18
74 44 84 23 8 63 -13 75 -41 7 -13 22 -27 34 -30 13 -3 47 -25 77 -49 29 -24
104 -78 166 -122 61 -43 112 -82 112 -86 0 -13 -17 -11 -50 6 -16 8 -75 26
-130 40 -78 18 -106 22 -119 13 -14 -8 -37 -6 -98 11 -90 24 -135 26 -163 9
-22 -14 -41 -6 -115 50 -59 45 -63 55 -30 70 32 15 32 37 0 58 -30 19 -52 13
-64 -18 -10 -28 -35 -50 -78 -72 l-33 -17 0 34 c0 53 -33 87 -82 87 l-40 0 51
48 c28 26 51 56 51 65 0 24 15 21 63 -13z m-604 -9 c20 -15 51 -36 69 -45 18
-10 32 -24 31 -34 -1 -16 -2 -16 -6 1 -3 12 -11 15 -28 11 -31 -8 -81 20 -100
56 -26 50 -19 52 34 11z m-77 -43 c51 -51 77 -68 132 -88 38 -14 71 -30 73
-36 2 -6 -18 -17 -44 -25 -41 -12 -48 -18 -48 -39 0 -34 30 -37 95 -9 28 12
53 19 57 16 8 -9 -6 -77 -17 -77 -5 0 -21 5 -35 12 -41 19 -41 0 0 -42 21 -22
37 -41 34 -43 -2 -2 -22 -8 -44 -13 -52 -12 -55 -34 -16 -113 17 -33 27 -62
22 -66 -15 -9 -39 5 -65 40 -14 18 -51 54 -81 80 l-56 48 -26 -24 c-14 -13
-34 -42 -43 -63 l-18 -39 -35 74 c-44 94 -82 131 -144 139 -25 3 -48 10 -50
16 -2 6 10 28 27 49 17 22 30 48 28 59 -3 19 -12 24 -78 43 -24 7 8 21 89 38
111 23 160 54 161 103 0 12 4 22 10 22 5 0 38 -28 72 -62z m534 35 c-10 -10
-19 5 -10 18 6 11 8 11 12 0 2 -7 1 -15 -2 -18z m269 7 c3 -6 -4 -10 -17 -10
-18 0 -20 2 -8 10 19 12 18 12 25 0z m-1875 -130 c0 -21 -15 -27 -25 -10 -7
12 2 30 16 30 5 0 9 -9 9 -20z m1630 -20 c13 -8 12 -11 -5 -24 -11 -9 -23 -16
-27 -16 -12 0 -20 20 -14 35 6 17 24 19 46 5z m-945 -33 c22 -11 41 -21 43
-22 6 -5 -53 -95 -62 -95 -10 0 -27 19 -66 79 -48 72 -14 87 85 38z m-1085
-35 c0 -10 -7 -27 -16 -38 -15 -18 -15 -18 -10 6 3 14 6 31 6 38 0 6 5 12 10
12 6 0 10 -8 10 -18z m1864 -235 c40 -97 26 -93 -19 5 -43 94 -58 195 -34 224
12 15 15 6 20 -72 4 -65 13 -107 33 -157z m412 192 c33 -20 64 -55 64 -71 0
-14 -57 -9 -69 6 -7 8 -27 18 -44 21 -93 19 -118 37 -74 55 38 15 88 11 123
-11z m-281 -30 c83 -55 200 -114 289 -144 66 -22 108 -27 343 -40 147 -9 297
-20 332 -25 76 -11 143 -49 240 -135 38 -33 78 -68 89 -77 12 -9 26 -36 32
-60 6 -24 18 -61 28 -83 24 -56 25 -346 1 -370 -15 -15 -21 -10 -77 56 -34 40
-62 80 -62 89 0 8 -8 20 -18 25 -10 6 -47 29 -81 52 -117 79 -394 172 -654
219 -77 14 -164 35 -195 45 -184 63 -382 268 -386 398 -1 39 26 91 47 91 6 0
39 -18 72 -41z m-2055 -24 c0 -2 -5 -16 -12 -30 -16 -35 -29 -31 -17 5 6 17
15 30 20 30 5 0 9 -2 9 -5z m2651 -27 c53 -15 49 -28 -10 -28 -59 0 -81 7 -81
26 0 17 39 18 91 2z m-2771 -25 c0 -28 -42 -153 -97 -293 -52 -133 -190 -339
-282 -421 -68 -60 -156 -108 -171 -93 -19 19 5 91 61 177 154 241 246 372 320
457 45 52 97 119 116 148 38 58 53 65 53 25z m1413 -35 c48 -31 85 -73 74 -84
-17 -18 -197 108 -197 137 0 13 64 -15 123 -53z m-317 30 c13 -42 149 -164
218 -197 71 -33 138 -43 116 -17 -6 8 -30 24 -53 35 -44 22 -133 98 -124 107
2 3 38 -15 80 -40 103 -63 190 -94 299 -106 153 -17 373 -80 427 -121 13 -11
32 -19 43 -19 24 0 74 -25 110 -56 15 -12 46 -30 68 -40 50 -22 111 -106 134
-185 9 -30 19 -99 22 -154 11 -177 -33 -349 -127 -502 -23 -37 -53 -87 -67
-111 -18 -32 -30 -42 -45 -40 -17 3 -23 15 -33 76 -16 98 -55 170 -137 258
-121 130 -178 165 -562 341 -314 145 -437 238 -510 384 -42 82 -85 191 -85
214 0 18 34 20 48 3 5 -7 21 -51 35 -98 15 -47 40 -107 58 -135 30 -48 185
-205 202 -205 17 0 206 -82 322 -139 66 -33 145 -71 176 -85 65 -30 240 -157
303 -219 23 -24 62 -72 86 -108 56 -83 109 -149 121 -149 5 0 21 19 36 42 16
23 38 52 49 63 42 43 83 314 65 436 -17 121 -45 176 -135 264 -45 44 -97 87
-116 96 -104 49 -136 61 -250 94 -148 43 -356 86 -376 78 -18 -6 -18 -17 -1
-31 7 -6 112 -37 232 -67 120 -31 247 -69 282 -85 73 -33 194 -121 241 -174
64 -73 67 -85 67 -271 0 -171 -11 -255 -42 -327 -9 -21 -22 -38 -30 -38 -7 0
-29 26 -49 58 -60 94 -168 197 -299 284 -128 84 -303 177 -425 226 -143 57
-231 101 -296 149 -59 43 -70 57 -110 139 -56 115 -71 189 -56 279 6 37 18 78
27 91 19 30 51 31 61 2z m1457 -2 c71 -14 113 -36 67 -36 -28 0 -169 35 -178
44 -9 10 38 6 111 -8z m-2448 -336 c42 -115 123 -282 150 -310 32 -34 89 -160
116 -255 18 -67 20 -98 17 -224 l-3 -146 33 1 c44 3 165 62 228 112 28 22 73
73 99 112 123 185 138 396 43 603 -17 37 -28 70 -25 73 9 9 75 -99 125 -206
52 -110 56 -154 22 -284 -29 -116 -82 -208 -170 -297 -66 -66 -86 -80 -158
-108 -100 -38 -214 -66 -236 -58 -14 6 -15 21 -10 124 12 224 -22 363 -135
553 -111 186 -150 312 -151 480 0 127 14 137 21 15 5 -85 12 -127 34 -185z
m1857 218 c39 -52 44 -76 16 -87 -18 -6 -26 -4 -37 12 -20 28 -51 114 -44 120
9 10 38 -10 65 -45z m-1272 -13 c0 -16 -6 -25 -15 -25 -21 0 -31 30 -14 41 23
14 29 11 29 -16z m994 -11 c31 -12 15 -25 -26 -22 -49 4 -66 28 -20 28 17 0
37 -3 46 -6z m-1730 -257 c-62 -191 -222 -393 -366 -465 -58 -28 -178 -50
-178 -32 0 3 24 14 54 23 75 24 190 102 256 174 75 80 121 151 188 291 47 96
58 112 60 89 2 -15 -4 -51 -14 -80z m2270 77 c7 -17 -6 -18 -22 -2 -7 7 -12
15 -12 20 0 12 28 -2 34 -18z m-2185 -130 c24 -63 27 -104 9 -104 -7 0 -40
-14 -72 -30 -32 -17 -60 -30 -62 -30 -5 0 37 71 58 99 10 13 21 45 24 72 4 27
10 49 14 49 4 0 17 -25 29 -56z m2683 -34 c256 -54 409 -107 516 -177 125 -81
246 -234 287 -360 26 -83 29 -82 95 37 l42 75 -6 -48 c-3 -27 -1 -57 5 -69 8
-15 7 -24 -8 -40 -23 -26 -123 -72 -134 -61 -4 4 -17 32 -29 62 -45 116 -171
263 -298 350 -77 52 -243 124 -337 147 -95 23 -426 124 -445 136 -26 16 64 2
312 -52z m-179 -51 c22 -13 19 -30 -20 -115 l-28 -59 -3 40 c-2 22 -9 47 -17
55 -7 8 -23 35 -35 59 l-22 44 53 -7 c29 -4 61 -12 72 -17z m-1483 -141 l5
-53 40 0 c22 0 50 4 63 8 43 16 23 -19 -57 -96 -43 -42 -83 -77 -88 -77 -5 0
-14 57 -20 128 -8 90 -17 140 -32 172 -33 72 -25 78 31 23 47 -47 53 -58 58
-105z m1613 80 c-12 -13 -38 -57 -59 -98 -28 -56 -38 -90 -42 -140 -5 -76 12
-218 33 -281 31 -91 149 -219 202 -219 20 0 22 2 11 20 -20 32 -1 35 40 6 21
-14 43 -26 50 -26 7 0 12 -4 12 -10 0 -11 -54 -26 -128 -36 l-53 -7 -48 51
c-102 109 -161 272 -163 447 0 96 1 103 42 195 51 115 54 120 93 120 l30 0
-20 -22z m1007 -8 c6 -12 22 -25 35 -30 13 -5 32 -22 41 -37 9 -15 36 -57 60
-93 50 -77 60 -106 43 -126 -10 -12 -17 -7 -44 33 -18 27 -62 77 -98 112 -80
78 -98 78 -90 -3 4 -43 1 -69 -17 -116 -12 -33 -24 -59 -27 -57 -9 10 28 292
42 314 19 28 41 30 55 3z m-834 -11 c3 -6 -8 -25 -25 -43 -36 -37 -111 -178
-111 -209 0 -25 -35 -87 -49 -87 -41 0 -4 205 50 282 38 53 116 87 135 57z
m-2736 -13 c0 -8 -33 -28 -77 -46 -43 -18 -94 -42 -113 -53 -123 -74 -299
-312 -276 -372 11 -29 36 -14 61 34 13 27 29 52 34 56 6 3 26 39 46 80 41 87
89 131 130 121 19 -5 50 4 106 30 44 20 82 34 85 32 2 -3 -6 -23 -18 -45 -28
-50 -20 -62 57 -88 66 -23 82 -13 37 23 -18 15 -32 36 -32 47 1 20 22 55 34
55 14 0 56 -114 56 -152 0 -44 -21 -93 -45 -101 -22 -9 -19 -37 10 -79 14 -20
25 -39 25 -41 0 -3 -11 -8 -25 -11 -26 -7 -30 -18 -26 -71 3 -35 27 -85 42
-85 5 0 16 15 24 33 10 25 15 28 20 16 11 -29 -21 -88 -51 -95 -32 -8 -174 12
-188 26 -19 19 3 21 55 6 64 -19 59 -20 59 2 0 10 -20 40 -44 67 l-44 50 -40
-39 c-38 -36 -42 -38 -73 -27 -17 6 -44 11 -58 11 -52 0 -57 16 -12 44 22 14
41 30 41 35 0 16 -36 22 -64 11 -26 -9 -28 -8 -45 33 -10 23 -21 50 -25 61
-10 29 -36 1 -36 -39 0 -72 -27 -83 -93 -38 -36 25 -39 30 -34 66 17 128 213
350 382 432 56 27 115 33 115 11z m2853 -42 c4 -4 -7 -25 -23 -47 -58 -79 -35
-95 107 -78 48 6 100 11 115 11 l28 0 -27 -48 c-31 -56 -27 -82 14 -82 34 0
120 -23 151 -39 31 -16 28 -28 -13 -52 -19 -12 -35 -27 -35 -34 0 -7 26 -22
58 -34 68 -24 145 -77 139 -94 -2 -6 -22 -15 -45 -19 -23 -4 -62 -19 -87 -33
-50 -30 -72 -28 -77 7 -5 34 -34 35 -51 1 -7 -15 -12 -36 -10 -45 6 -24 -14
-23 -26 1 -14 25 -92 47 -119 32 -30 -16 -52 -51 -52 -83 0 -24 -4 -28 -30
-28 -16 0 -30 5 -30 11 0 5 -34 46 -75 89 -65 68 -75 84 -75 115 0 41 -19 54
-54 35 -60 -31 -88 23 -41 78 15 18 37 67 51 110 30 99 93 198 137 217 35 16
60 19 70 9z m-2813 -13 c0 -9 -34 -21 -62 -21 -10 0 -18 5 -18 11 0 5 3 8 8 6
4 -3 16 -1 27 4 27 11 45 11 45 0z m2913 -38 c-7 -2 -19 -2 -25 0 -7 3 -2 5
12 5 14 0 19 -2 13 -5z m-1733 -85 l34 -14 -85 -27 c-95 -30 -149 -64 -202
-129 -62 -76 -82 -131 -82 -228 0 -75 4 -91 30 -138 30 -56 80 -101 95 -86 4
5 10 18 12 29 5 28 48 31 81 5 53 -42 38 -50 -95 -50 -150 0 -640 38 -727 56
-38 8 -19 15 96 34 60 11 117 22 127 26 18 7 18 6 1 -20 -10 -15 -15 -29 -12
-32 3 -4 57 -1 119 5 154 15 160 15 202 -14 32 -22 37 -23 43 -9 3 9 -2 48
-12 86 -42 163 8 293 172 449 90 86 116 93 203 57z m1935 -47 c7 -12 -12 -24
-25 -16 -11 7 -4 25 10 25 5 0 11 -4 15 -9z m-1735 -40 c0 -6 -4 -13 -10 -16
-5 -3 -10 1 -10 9 0 9 5 16 10 16 6 0 10 -4 10 -9z m-266 -43 c-73 -87 -174
-190 -174 -177 0 31 67 125 118 166 65 53 97 59 56 11z m176 23 c0 -5 9 -13
20 -16 15 -5 20 -15 20 -45 0 -35 3 -39 48 -61 41 -21 61 -24 153 -24 l107 1
-34 -45 c-19 -24 -33 -49 -31 -55 6 -17 46 -24 152 -26 55 -1 109 -5 120 -9
19 -7 18 -8 -5 -21 -34 -17 -90 -71 -90 -87 0 -6 21 -24 48 -39 89 -51 142
-86 142 -95 0 -18 -90 -8 -187 21 -189 56 -203 56 -203 -1 0 -63 -29 -77 -70
-34 -13 14 -53 41 -88 61 -57 31 -68 34 -92 24 -36 -15 -74 -55 -65 -70 4 -7
24 -8 54 -4 37 5 59 1 96 -15 27 -12 46 -23 44 -24 -2 -2 -52 0 -110 3 -106 5
-139 16 -139 46 0 8 -19 34 -42 58 -32 32 -54 46 -83 51 -83 14 -118 27 -141
52 -13 14 -24 30 -24 34 0 5 19 18 42 30 23 12 90 70 148 129 130 131 210 193
210 161z m2337 -67 c-50 -45 -77 -55 -77 -30 0 32 12 46 35 40 15 -4 31 2 51
19 50 43 41 17 -9 -29z m-2077 30 c22 -9 40 -20 40 -25 0 -8 -68 -14 -134 -12
-41 2 -56 20 -32 39 26 19 76 18 126 -2z m-2120 2 c0 -2 -9 -25 -19 -50 -19
-44 -21 -45 -49 -35 -37 13 -76 49 -65 60 11 11 133 34 133 25z m-175 -72 c56
-104 370 -295 591 -359 201 -58 516 -111 824 -137 199 -17 1148 -17 1375 0
401 30 597 60 850 128 232 63 347 104 502 179 137 66 190 99 281 172 55 44 82
52 100 30 6 -7 20 -51 31 -98 11 -46 31 -112 45 -146 15 -35 26 -67 26 -73 0
-7 -19 -9 -58 -4 -56 6 -59 5 -101 -30 -46 -39 -68 -45 -78 -21 -11 30 61 85
111 85 66 0 101 49 51 72 -34 15 -84 -1 -164 -52 -59 -38 -101 -51 -101 -31 0
13 72 71 87 71 18 0 153 129 153 146 0 29 -58 4 -119 -52 -45 -40 -97 -70
-286 -164 -166 -83 -265 -116 -520 -175 -259 -60 -382 -80 -640 -104 -121 -12
-283 -29 -360 -38 -107 -12 -233 -16 -530 -17 -404 0 -488 6 -895 60 -193 26
-467 92 -670 161 -59 20 -230 109 -300 155 -94 62 -199 167 -225 226 -28 60
-11 74 20 16z m2513 -66 c7 -7 12 -15 12 -19 0 -12 -49 -20 -77 -13 l-26 7 22
19 c27 21 52 23 69 6z m568 -76 c-4 -11 4 -34 19 -56 14 -20 25 -43 25 -49 0
-18 -78 -91 -117 -111 -38 -19 -43 -36 -10 -36 27 0 134 53 164 82 17 16 23
18 23 7 0 -8 -5 -20 -11 -26 -16 -16 -2 -33 29 -33 15 0 34 -4 41 -9 19 -12
-7 -18 -119 -25 -47 -3 -114 -9 -150 -12 l-65 -7 42 45 c23 25 48 59 56 75 9
16 23 35 31 42 11 10 14 24 9 57 -4 28 -1 49 7 59 17 21 33 19 26 -3z m-3056
-34 c217 -177 522 -320 820 -383 144 -30 414 -75 462 -76 l33 -1 -35 -9 c-19
-6 -59 -19 -88 -31 -65 -25 -123 -20 -161 15 -62 58 -100 55 -121 -7 -12 -38
-1 -96 25 -130 18 -24 20 -67 3 -84 -19 -19 -65 -14 -87 9 -39 42 -55 -3 -21
-58 36 -60 95 -56 166 9 73 67 73 68 3 145 -34 37 -56 69 -50 71 6 2 32 -3 58
-12 84 -27 118 -29 180 -11 66 20 175 15 222 -10 30 -15 81 -76 81 -96 0 -7
-5 -28 -12 -46 -10 -28 -10 -36 4 -50 15 -15 20 -13 64 16 70 46 79 41 79 -47
1 -53 5 -76 17 -89 16 -15 21 -14 70 20 54 38 88 47 88 25 0 -7 -10 -41 -21
-74 -26 -74 -22 -98 16 -84 39 15 138 13 133 -2 -3 -7 -34 -28 -71 -47 -84
-43 -90 -59 -42 -113 45 -49 40 -53 -64 -63 -116 -10 -114 -9 -106 -65 l7 -48
-41 -7 c-23 -4 -43 -11 -46 -15 -9 -14 -108 -22 -137 -11 -21 8 -28 17 -28 36
0 21 -8 29 -37 41 -59 23 -68 29 -71 53 -2 15 5 26 27 39 17 9 33 23 36 30 6
15 -66 68 -106 77 -40 9 -37 30 9 59 81 51 84 75 16 121 -30 21 -60 47 -66 58
-9 18 -8 19 18 11 58 -17 121 -11 148 15 14 14 26 32 26 42 0 31 12 50 36 60
13 4 24 14 24 20 0 19 -66 75 -121 103 -65 32 -100 33 -135 2 -23 -19 -28 -32
-28 -72 -1 -38 3 -49 16 -52 12 -2 19 5 24 22 8 34 35 56 78 63 41 6 44 -2 20
-48 -9 -18 -14 -48 -12 -72 3 -37 1 -42 -17 -39 -11 2 -27 9 -35 16 -8 7 -46
21 -83 31 -68 17 -68 17 -91 -4 -45 -42 -76 -123 -76 -198 l0 -69 -47 0 c-48
1 -48 1 -45 -31 2 -17 -4 -60 -13 -94 -14 -53 -15 -70 -4 -101 7 -21 9 -41 5
-45 -4 -4 -35 8 -69 26 -37 20 -72 32 -87 30 -22 -4 -25 -9 -28 -53 -3 -38 2
-56 18 -79 l22 -29 -38 4 c-30 2 -39 -1 -42 -14 -5 -24 26 -37 105 -44 114
-11 143 25 60 74 -19 11 -44 34 -57 53 -24 32 -18 32 30 -3 14 -10 51 -23 83
-28 45 -7 72 -19 120 -56 119 -90 188 -104 299 -59 86 35 110 33 158 -14 30
-29 62 -46 134 -70 121 -40 196 -41 370 -4 100 21 132 24 145 15 41 -30 93
-44 171 -49 73 -5 88 -3 107 13 32 26 20 39 -72 77 -114 47 -110 57 21 54
l108 -2 9 38 c5 20 13 37 18 37 5 0 19 -21 30 -47 39 -92 129 -160 201 -150
20 3 60 19 88 36 60 37 60 37 130 10 31 -12 90 -23 140 -26 113 -7 176 11 250
73 30 25 74 54 98 65 47 20 48 25 28 74 -20 48 -49 46 -81 -4 -32 -52 -87
-106 -128 -127 -37 -20 -167 -32 -167 -16 0 12 24 22 54 22 12 0 31 7 42 15
16 13 17 16 4 25 -8 5 -30 10 -47 10 -35 0 -73 29 -73 55 0 9 14 16 38 20 65
11 67 14 64 103 -2 64 1 81 13 86 10 3 15 18 15 43 -1 30 -3 34 -10 21 -10
-16 -14 -16 -67 3 -57 19 -95 24 -106 13 -10 -10 18 -56 53 -89 17 -16 39 -43
47 -59 14 -27 14 -31 -3 -43 -12 -9 -37 -13 -67 -11 l-47 3 0 -93 c0 -105 -10
-119 -62 -89 -42 24 -59 21 -109 -17 -44 -33 -139 -58 -139 -36 0 6 8 10 18
10 22 0 124 48 134 63 3 6 2 19 -4 30 -17 33 -80 97 -94 97 -17 0 -30 29 -39
83 -8 48 -27 55 -76 28 -21 -12 -43 -20 -48 -17 -5 4 -12 41 -16 84 -6 58 -13
85 -31 109 -20 26 -22 36 -14 58 16 42 13 57 -12 53 -26 -4 -68 -61 -68 -94 0
-12 18 -44 40 -69 42 -48 47 -60 30 -70 -12 -7 -50 30 -50 49 0 7 -9 16 -20
19 -49 13 -68 162 -30 225 20 32 23 33 63 27 29 -5 50 -16 67 -36 29 -35 57
-31 66 7 8 31 32 44 81 44 44 0 68 14 86 50 11 22 21 26 84 31 81 6 117 25
137 72 29 68 75 84 161 54 28 -10 40 -20 40 -33 0 -17 -9 -19 -87 -22 -88 -3
-88 -3 -104 -35 -9 -18 -23 -40 -31 -49 -18 -21 -13 -62 8 -66 10 -2 25 11 39
32 l22 36 80 0 c78 0 81 1 114 34 38 38 37 49 -4 103 -32 43 -97 73 -156 73
-44 0 -52 -4 -107 -57 -32 -31 -59 -62 -59 -70 0 -30 -44 -11 -94 41 -29 30
-65 58 -82 63 -16 4 -87 8 -159 8 l-130 0 -59 -42 c-98 -71 -155 -70 -187 3
-11 24 -24 44 -28 44 -15 0 -32 -28 -38 -64 -5 -33 -3 -36 43 -65 55 -36 104
-40 131 -12 10 10 31 21 48 25 16 4 47 21 69 37 38 28 45 29 143 29 113 0 146
-10 182 -56 19 -25 20 -44 2 -44 -5 0 -25 14 -46 30 -46 36 -103 40 -152 10
-36 -21 -42 -49 -21 -95 6 -14 9 -27 6 -30 -3 -3 -28 -1 -56 5 -67 15 -87 3
-119 -67 -44 -97 -34 -237 21 -282 29 -25 16 -29 -35 -13 -51 16 -51 16 -70
-7 -24 -29 -26 -119 -4 -161 8 -15 42 -45 75 -65 58 -35 75 -55 46 -55 -8 0
-44 16 -81 36 -88 46 -109 43 -159 -23 -68 -92 -199 -140 -351 -130 -82 5
-178 33 -218 63 l-22 16 25 -5 c14 -3 45 -13 70 -22 55 -21 150 -16 199 10 27
13 47 16 98 10 49 -5 69 -3 87 9 22 14 122 154 115 160 -2 1 -23 10 -46 20
-60 27 -64 46 -8 46 24 0 47 5 51 12 4 7 13 51 19 98 7 47 15 93 19 102 5 12
0 25 -18 42 -42 43 -52 28 -51 -83 0 -55 -3 -103 -7 -107 -8 -7 -37 5 -70 28
-47 33 -76 -78 -39 -150 12 -23 21 -50 21 -61 0 -17 -3 -18 -30 -8 -24 9 -32
8 -42 -5 -7 -9 -30 -19 -50 -22 -20 -4 -57 -16 -82 -27 -51 -22 -147 -30 -153
-13 -4 12 85 54 115 54 11 0 30 9 43 19 l24 19 -28 11 c-16 6 -42 11 -58 11
-18 0 -29 5 -29 14 0 10 22 16 77 21 129 12 145 30 101 119 l-22 45 57 60 c31
33 57 66 57 75 0 20 -35 42 -80 51 -52 11 -58 19 -52 74 4 47 3 50 -27 65 -17
9 -31 21 -31 27 0 21 58 68 98 78 45 13 97 -2 137 -38 11 -10 35 -26 54 -36
51 -26 60 -6 22 51 -21 32 -31 60 -31 85 0 46 -9 53 -40 29 -23 -18 -25 -18
-59 8 -35 28 -128 55 -136 42 -9 -14 6 -37 31 -48 32 -15 30 -28 -6 -47 -50
-26 -98 -74 -110 -110 -11 -34 -44 -55 -60 -38 -17 16 -23 90 -9 101 8 6 27
22 43 35 20 16 27 29 23 41 -8 19 -35 15 -106 -15 -24 -11 -58 -19 -76 -19
-28 0 -35 6 -49 35 -13 26 -37 47 -94 80 l-77 46 50 -6 c494 -56 1392 -15
1957 90 166 30 513 117 610 152 80 28 145 38 183 29 22 -6 25 -12 25 -56 0
-37 5 -55 20 -70 33 -33 51 -22 68 40 l9 35 12 -28 c13 -32 14 -67 3 -83 -4
-7 -26 -17 -49 -23 -23 -6 -67 -25 -98 -41 -75 -39 -98 -38 -142 6 -34 34 -39
36 -85 32 -67 -7 -74 -17 -49 -67 22 -42 38 -49 72 -30 30 16 59 1 66 -33 6
-33 23 -42 96 -52 26 -4 47 -10 47 -13 0 -3 -13 -22 -29 -42 -54 -69 -64 -111
-26 -111 26 0 75 29 75 45 0 7 14 23 30 35 17 12 30 29 30 39 0 30 -37 68 -85
87 -25 11 -45 22 -45 27 0 4 38 7 85 7 l85 0 30 -47 c16 -27 32 -62 36 -80 7
-39 30 -61 46 -45 7 7 8 36 1 96 -5 47 -7 86 -5 86 2 0 15 -13 29 -30 13 -16
31 -30 39 -30 32 0 25 93 -9 114 -13 8 -27 5 -61 -13 -24 -14 -51 -21 -60 -18
-14 6 -13 13 13 59 16 29 36 77 46 105 19 60 35 77 35 38 0 -42 18 -65 72 -90
39 -18 56 -21 75 -14 13 5 26 9 29 9 2 0 4 -52 4 -115 0 -113 0 -116 -25 -127
-36 -16 -33 -47 5 -55 17 -3 33 -10 36 -15 14 -22 -9 -100 -42 -145 -19 -27
-38 -58 -44 -70 -12 -29 -27 -29 -35 -2 -11 33 -27 18 -70 -66 -37 -72 -66
-107 -79 -94 -3 3 6 33 20 67 15 37 26 86 27 120 2 52 0 57 -25 70 -16 7 -28
17 -28 23 0 17 -44 9 -67 -13 -34 -32 -31 -81 7 -108 20 -14 30 -30 30 -46 0
-53 -67 -144 -104 -143 -20 0 -19 1 4 17 70 48 80 96 30 140 -19 17 -30 36
-30 53 0 15 -7 29 -15 33 -19 7 -57 -7 -75 -28 -12 -15 -8 -22 29 -60 34 -35
42 -48 36 -66 -7 -22 -13 -23 -70 -6 -11 4 -27 2 -35 -4 -13 -9 -11 -14 14
-36 26 -23 27 -27 16 -53 -16 -39 -70 -93 -89 -89 -9 2 -23 18 -31 36 -15 35
-17 35 -77 11 -30 -12 -34 -11 -61 14 -36 34 -47 34 -89 -3 -41 -36 -64 -37
-117 -6 -41 24 -126 115 -126 135 0 6 16 11 35 11 30 0 35 -3 35 -24 0 -29 6
-31 115 -46 105 -15 149 -11 154 14 5 29 -26 47 -70 40 -28 -5 -51 0 -94 20
-61 27 -62 36 -13 66 24 14 35 16 48 8 24 -16 48 -4 56 28 10 37 -3 53 -61 75
-64 25 -107 22 -120 -8 -5 -13 -13 -23 -17 -23 -12 0 -48 53 -48 71 0 15 8 19
40 19 28 0 47 7 62 22 12 12 23 17 25 11 2 -5 10 -19 18 -29 13 -18 14 -18 39
5 29 28 32 45 11 81 -13 24 -12 27 20 55 33 28 35 35 41 110 6 71 4 83 -14
105 -18 22 -27 25 -84 24 -44 -1 -89 -11 -148 -33 -68 -26 -89 -30 -108 -22
-39 18 -72 13 -81 -11 -9 -24 2 -75 19 -92 16 -16 11 -44 -28 -161 -34 -100
-41 -112 -72 -127 -45 -23 -91 -23 -121 1 -32 25 -65 34 -95 27 -34 -9 -30
-23 11 -36 19 -6 35 -16 35 -21 0 -5 1 -12 1 -16 1 -4 -11 -15 -27 -24 -38
-21 -41 -52 -10 -100 28 -41 72 -76 83 -65 4 4 1 27 -5 53 -7 25 -11 48 -9 50
9 8 189 -31 203 -44 8 -9 14 -34 14 -65 0 -46 -3 -53 -45 -94 -25 -24 -45 -48
-45 -53 0 -6 11 -31 25 -57 14 -26 25 -55 25 -65 0 -11 4 -19 9 -19 18 0 51
68 51 103 0 20 7 55 16 77 33 82 2 250 -45 250 -28 0 -51 11 -51 23 0 6 19 27
41 47 30 26 48 52 63 95 24 67 38 74 47 24 10 -63 83 -169 116 -169 8 0 13 -6
10 -12 -2 -9 -25 -13 -67 -13 -62 0 -63 -1 -72 -30 -4 -17 -4 -43 2 -60 5 -16
16 -75 24 -130 23 -150 40 -199 83 -234 33 -28 36 -32 25 -56 -11 -24 -11 -25
27 -25 21 0 41 3 44 6 9 9 -9 39 -59 101 -24 30 -44 57 -44 62 0 4 14 20 31
37 22 20 33 25 36 16 13 -36 72 -109 98 -122 17 -8 67 -16 113 -18 45 -2 82
-8 82 -13 0 -4 -19 -13 -42 -19 -24 -6 -92 -27 -153 -45 -60 -19 -153 -45
-205 -59 -53 -14 -129 -34 -170 -45 -103 -28 -280 -60 -387 -71 -48 -5 -124
-14 -168 -20 -157 -23 -1098 0 -1228 29 -23 6 -130 22 -237 36 -190 25 -525
89 -625 120 -57 17 -86 34 -69 41 6 3 20 11 30 19 31 22 5 36 -83 45 -83 9
-153 31 -153 49 0 15 5 14 50 -9 69 -35 161 -19 210 37 32 36 35 49 20 73 -8
12 -16 9 -44 -22 -38 -42 -92 -58 -133 -39 -33 15 -24 35 18 39 39 4 59 18 59
41 0 9 4 22 9 30 7 11 13 10 33 -3 14 -9 48 -19 76 -23 65 -7 88 7 126 76 24
44 27 59 21 100 -5 37 -3 50 9 60 13 11 19 10 35 -10 18 -22 21 -23 36 -8 23
23 13 48 -43 108 -65 70 -82 68 -82 -8 0 -103 -45 -99 -68 6 -9 39 -7 46 19
79 16 20 29 41 29 46 0 12 -55 65 -93 91 -45 30 -34 40 34 33 64 -8 123 5 132
28 3 8 -1 24 -10 36 -16 23 -21 23 -109 5 -22 -5 -40 -1 -65 14 -19 12 -42 21
-51 21 -30 0 -32 22 -5 42 36 26 35 48 -2 48 -15 0 -55 14 -87 31 -32 17 -77
40 -99 52 -29 15 -65 22 -130 25 -57 3 -94 10 -103 18 -21 21 -39 17 -74 -17
l-33 -31 -28 32 c-27 31 -29 36 -22 95 6 57 4 64 -20 93 -14 17 -30 45 -36 62
-14 37 -33 34 -37 -6 -8 -88 -11 -94 -49 -94 -32 0 -35 2 -28 23 15 48 17 78
5 92 -15 18 1 42 35 55 34 14 41 12 95 -32z m1424 -30 c-8 -39 -18 -76 -24
-82 -5 -5 -35 -11 -67 -13 -49 -3 -55 -2 -39 9 51 36 67 52 62 64 -5 14 58 94
74 94 4 0 2 -32 -6 -72z m1918 5 c10 -9 18 -22 18 -30 0 -11 -5 -10 -24 2 -27
18 -42 45 -24 45 6 0 20 -7 30 -17z m-702 -55 c0 -7 3 -23 6 -35 8 -29 -14
-31 -47 -5 -14 12 -20 25 -16 35 7 20 57 23 57 5z m1080 -7 c0 -8 -23 -19 -72
-35 -28 -9 -21 12 10 28 30 17 62 21 62 7z m-3839 -180 c32 -70 46 -81 98 -81
106 0 113 -19 51 -133 -40 -75 -41 -75 -70 -64 -24 9 -32 8 -49 -8 -28 -25
-27 -77 4 -143 14 -30 25 -58 25 -64 0 -16 -64 -148 -72 -148 -5 0 -8 35 -8
79 0 86 -15 118 -68 143 -22 11 -27 20 -27 47 0 19 5 36 10 38 19 6 39 -16 40
-44 0 -18 5 -28 15 -28 11 0 16 14 18 52 3 47 1 53 -25 70 -15 10 -31 22 -35
28 -11 15 -10 183 1 190 18 10 33 -64 26 -125 -6 -49 -4 -60 7 -60 25 0 50 37
55 82 7 60 -11 119 -52 168 -38 45 -42 59 -23 78 16 16 51 -17 79 -77z m4452
72 c16 -9 -6 -23 -37 -23 -31 0 -56 15 -56 33 0 8 76 0 93 -10z m191 -14 c38
-30 61 -76 45 -95 -15 -19 -33 -18 -78 6 -55 28 -61 49 -23 93 19 22 24 21 56
-4z m-4543 -35 c5 -15 7 -30 3 -33 -7 -7 -34 28 -34 46 0 23 20 14 31 -13z
m2432 5 c47 -13 48 -29 1 -29 -38 0 -74 15 -74 30 0 13 26 13 73 -1z m-2020
-113 c9 -7 17 -16 17 -19 0 -3 -33 -3 -72 0 -40 3 -92 1 -114 -5 -44 -10 -77
-1 -59 17 20 20 203 26 228 7z m-59 -46 c28 -10 46 -59 46 -123 0 -44 21 -58
49 -33 10 9 28 16 41 16 22 0 22 1 7 18 -22 24 -22 52 -1 52 13 0 60 -29 123
-77 3 -2 -6 -14 -19 -28 -29 -31 -22 -48 40 -86 47 -29 57 -49 24 -49 -23 0
-17 -68 11 -128 30 -66 30 -67 3 -69 -41 -3 -53 -27 -42 -82 l10 -49 -38 5
c-42 6 -51 -6 -63 -80 -3 -21 -12 -40 -19 -43 -21 -8 -68 15 -73 37 -8 30 -26
18 -41 -29 -15 -44 -37 -55 -47 -23 -11 35 -33 46 -53 27 -25 -22 -39 -20 -47
5 -4 11 -27 30 -51 42 -51 24 -54 32 -17 42 44 11 54 24 47 62 -5 29 -2 39 21
63 21 22 28 40 29 72 1 37 -2 43 -21 46 -36 5 -28 24 25 61 39 27 37 41 -8 56
-19 6 -35 16 -37 21 -2 5 20 23 48 39 65 37 79 57 61 86 -11 18 -11 23 4 34
16 11 16 14 -9 38 -15 16 -42 29 -67 33 -44 7 -43 13 5 38 36 19 28 18 59 6z
m3421 -22 c17 -15 -16 -28 -73 -28 -70 0 -109 -21 -133 -73 -24 -54 -24 -74 2
-116 28 -47 17 -50 -27 -7 -20 20 -45 36 -56 36 -24 0 -23 4 7 36 31 34 28 47
-13 55 -40 8 -62 26 -62 50 0 15 5 17 29 13 18 -4 56 2 95 15 115 37 203 45
231 19z m-3659 -128 c-14 -44 -14 -44 -15 -12 -1 18 4 43 11 55 17 33 20 8 4
-43z m3609 40 c14 -5 24 -14 21 -19 -13 -20 -117 -82 -127 -75 -13 8 -5 69 12
90 13 16 57 18 94 4z m-3467 -22 c28 -28 -6 -78 -44 -64 -14 5 -20 57 -7 69
10 11 38 8 51 -5z m-258 -94 c0 -16 -16 -19 -25 -4 -8 13 4 32 16 25 5 -4 9
-13 9 -21z m142 -60 c21 -15 40 -36 43 -48 2 -12 6 -37 10 -57 3 -20 14 -44
25 -54 28 -25 25 -32 -15 -39 -34 -7 -35 -9 -35 -51 0 -51 -19 -75 -60 -75
-90 0 -79 -53 25 -130 29 -22 57 -49 60 -61 6 -19 13 -21 57 -17 48 5 49 4 63
-27 7 -18 22 -36 33 -39 27 -9 36 -35 16 -43 -15 -6 -105 36 -221 101 -56 32
-218 162 -235 189 -30 47 -29 56 7 71 27 12 36 23 45 58 32 122 60 188 80 188
28 0 -4 -123 -55 -213 -19 -33 -24 -52 -17 -59 23 -23 48 -1 86 74 46 91 59
172 32 209 -37 53 -6 65 56 23z m2516 6 c17 -11 32 -22 32 -25 0 -2 -12 -12
-26 -22 -25 -16 -27 -16 -45 8 -21 28 -25 59 -6 59 6 0 27 -9 45 -20z m-2851
-122 c-3 -8 -6 -5 -6 6 -1 11 2 17 5 13 3 -3 4 -12 1 -19z m1380 -88 c36 -59
41 -94 18 -124 -8 -11 -15 -35 -15 -53 0 -37 24 -93 40 -93 6 0 10 -23 10 -50
0 -57 27 -120 62 -144 21 -15 21 -17 5 -33 -20 -20 -133 -31 -149 -15 -8 8 -4
14 15 21 15 6 27 15 27 21 0 6 -28 24 -62 41 -123 60 -152 77 -159 95 -12 29
-10 48 5 69 13 18 15 18 66 -4 87 -37 99 -14 55 103 -30 80 -31 126 -5 184 26
57 45 53 87 -18z m3357 -112 c-42 -82 -200 -251 -296 -316 -67 -46 -327 -171
-433 -209 -150 -53 -324 -102 -435 -122 -58 -11 -134 -26 -170 -35 -121 -28
-254 -36 -694 -46 -475 -10 -573 -6 -951 36 -594 65 -795 104 -1115 217 -166
59 -195 72 -260 113 -30 19 -89 57 -131 84 -89 56 -174 134 -164 149 4 8 17 4
36 -11 17 -13 50 -36 73 -53 24 -16 63 -45 87 -64 62 -47 242 -132 384 -181
141 -49 256 -76 574 -136 506 -95 560 -99 1286 -99 655 0 676 1 965 61 295 60
470 116 675 214 265 128 456 263 532 377 38 58 63 72 37 21z m-3814 -36 c0
-47 -18 -30 -27 24 -6 36 -5 38 10 25 10 -8 17 -28 17 -49z m3610 -67 c-67
-71 -387 -262 -407 -242 -3 4 2 27 11 51 16 41 22 46 67 59 27 8 80 33 117 55
37 22 92 48 123 57 31 8 64 22 75 30 31 23 40 17 14 -10z m-742 -42 c2 -9 -7
-13 -27 -13 -30 0 -39 9 -24 24 11 10 46 3 51 -11z m909 -80 c-13 -21 -52 -88
-86 -148 -66 -117 -154 -239 -164 -228 -4 3 -7 25 -7 48 0 90 -42 94 -100 9
-49 -74 -129 -159 -216 -234 l-82 -69 6 84 5 85 -30 0 c-44 0 -119 -56 -176
-131 -72 -94 -153 -185 -193 -216 -42 -32 -48 -27 -63 59 -14 80 -45 146 -73
157 -40 15 -73 -7 -224 -150 -81 -77 -158 -142 -171 -145 -32 -8 -47 7 -74 74
-12 31 -34 75 -48 97 -47 71 -56 66 -242 -110 -90 -86 -175 -164 -187 -173
-23 -15 -25 -14 -55 16 -30 29 -141 133 -269 250 -31 28 -64 52 -72 52 -30 0
-114 -112 -177 -235 l-36 -70 -50 -3 c-38 -2 -55 1 -65 14 -7 9 -47 53 -88 98
-41 44 -104 114 -140 154 -71 81 -90 95 -116 85 -9 -3 -39 -54 -66 -112 -52
-110 -83 -161 -99 -161 -5 0 -9 9 -9 19 0 11 -9 22 -19 26 -11 3 -44 36 -72
73 -82 104 -265 284 -286 280 -29 -5 -43 -79 -36 -190 5 -89 4 -98 -12 -98
-10 0 -110 95 -224 210 -219 224 -245 242 -258 180 -3 -17 -11 -29 -17 -27
-18 6 -134 149 -153 187 -9 19 -26 49 -38 65 -13 17 -30 44 -38 61 -16 31 -15
30 64 -21 132 -87 366 -187 564 -241 50 -13 123 -33 164 -44 108 -29 440 -87
631 -109 339 -41 434 -45 990 -45 l545 -1 240 48 c397 80 653 150 787 218 31
16 64 29 72 29 47 0 282 151 398 257 45 40 83 71 85 69 3 -2 -6 -21 -20 -43z
m-2062 27 c3 -5 17 -10 30 -10 15 0 34 -14 55 -39 30 -39 32 -40 80 -34 l48 6
22 -44 c12 -24 31 -54 42 -66 29 -32 17 -53 -30 -53 -41 0 -92 30 -92 55 0 8
-11 27 -24 42 -23 26 -29 28 -105 28 -78 0 -81 1 -115 34 -38 36 -52 64 -41
81 8 13 122 13 130 0z m1331 -25 c25 -19 73 -19 95 1 10 9 25 14 34 12 14 -3
13 -7 -7 -38 -13 -19 -35 -39 -49 -44 -39 -13 -96 1 -132 34 -27 25 -30 31
-17 40 22 14 53 12 76 -5z m-3299 -151 c-3 -3 -12 -4 -19 -1 -8 3 -5 6 6 6 11
1 17 -2 13 -5z m1783 -165 c0 -4 -7 -6 -15 -3 -8 4 -15 10 -15 15 0 4 7 6 15
3 8 -4 15 -10 15 -15z m1910 -118 c-6 -23 -23 -50 -41 -65 -43 -36 -119 -80
-126 -72 -10 10 47 84 111 143 33 31 62 51 64 45 2 -6 -2 -29 -8 -51z m-3763
-157 c82 -69 108 -102 55 -68 -71 44 -162 134 -138 134 3 0 40 -30 83 -66z
m3353 -39 c-12 -36 -29 -74 -38 -85 -16 -18 -133 -73 -141 -65 -4 5 95 136
151 199 52 60 60 47 28 -49z m-2825 -122 c67 -73 112 -130 107 -135 -13 -13
-202 32 -211 51 -8 15 -22 211 -15 211 1 0 55 -57 119 -127z m2385 12 c26 -79
23 -104 -15 -126 -32 -19 -315 -81 -315 -70 0 4 63 69 140 145 158 157 155
157 190 51z m-514 -101 c14 -38 31 -77 36 -87 5 -11 7 -21 5 -23 -9 -9 -117
-23 -233 -29 l-119 -7 128 128 c146 145 134 144 183 18z m-1367 5 c55 -49 106
-100 112 -111 11 -21 11 -21 -102 -15 -104 5 -219 22 -219 33 0 2 8 12 19 23
10 10 30 50 45 90 15 39 31 71 36 71 4 0 54 -41 109 -91z m702 -49 l134 -131
-207 3 c-146 2 -211 7 -219 15 -10 10 -5 24 23 65 19 29 43 69 53 88 17 35 63
90 75 90 4 0 67 -59 141 -130z m-909 -116 c389 -60 797 -83 1198 -65 328 15
411 23 623 62 93 17 175 28 183 25 8 -3 14 -12 14 -21 0 -9 11 -38 25 -66 15
-29 23 -58 20 -69 -11 -34 -114 -118 -196 -159 -249 -125 -571 -182 -1044
-184 -240 -2 -273 0 -425 25 -176 30 -276 54 -355 88 -69 29 -225 130 -225
145 0 7 -13 29 -30 50 -35 44 -38 72 -10 117 11 18 20 43 20 56 0 28 0 28 202
-4z m2140 -186 c-6 -25 -97 -115 -135 -135 -18 -9 -57 -33 -87 -54 -104 -72
-376 -143 -705 -184 -163 -20 -668 -21 -780 -1 -303 54 -493 121 -612 214 -45
36 -133 150 -133 173 0 19 16 7 50 -37 48 -62 158 -148 244 -189 207 -99 501
-142 919 -132 516 11 912 102 1117 256 50 38 109 109 111 135 0 6 4 2 8 -9 4
-11 6 -28 3 -37z m222 -7 c57 -26 106 -53 110 -60 9 -15 3 -14 -66 5 -32 9
-61 14 -65 11 -10 -11 19 -38 67 -62 70 -35 112 -74 108 -99 -5 -33 -65 -33
-134 -2 -31 14 -65 26 -76 26 -34 0 -17 -41 32 -77 103 -77 106 -80 94 -100
-18 -29 -91 -29 -163 1 -100 43 -113 34 -76 -46 14 -29 25 -65 25 -80 0 -31
-41 -68 -74 -68 -32 1 -105 36 -152 75 -52 43 -88 60 -109 51 -14 -5 -13 -13
14 -60 39 -68 40 -99 1 -138 -28 -28 -36 -30 -80 -26 -62 6 -122 46 -157 105
-18 32 -31 43 -49 43 -23 0 -24 -3 -24 -71 0 -83 -20 -133 -61 -154 -69 -36
-151 -6 -229 84 -29 33 -59 61 -66 61 -7 0 -20 -22 -28 -48 -28 -83 -104 -142
-182 -142 -41 0 -64 21 -100 92 -27 54 -61 98 -76 98 -4 0 -19 -22 -32 -48
-61 -120 -212 -186 -282 -122 -33 31 -63 95 -64 136 0 39 -23 60 -50 48 -11
-5 -37 -31 -58 -58 -45 -60 -92 -86 -152 -86 -51 0 -83 18 -110 63 -18 29 -18
31 3 74 21 43 18 71 -10 80 -5 2 -49 -26 -97 -62 -102 -76 -150 -94 -196 -75
-17 7 -38 23 -46 36 -14 20 -13 26 7 66 12 24 37 60 56 81 28 31 32 41 23 57
-15 27 -20 26 -78 -20 -61 -48 -109 -70 -157 -70 -86 0 -101 52 -35 124 40 43
52 76 28 76 -7 0 -45 -6 -84 -13 -78 -15 -109 -9 -119 23 -8 26 25 66 72 86
61 26 62 74 1 74 -15 0 -28 4 -28 10 0 10 148 100 167 100 6 0 28 -28 49 -61
84 -139 213 -223 444 -292 224 -67 275 -72 755 -72 475 1 571 9 787 64 285 74
459 181 573 354 21 31 40 57 42 57 2 0 50 -22 107 -49z m297 -195 c23 -44 35
-127 25 -180 -11 -56 -101 -181 -175 -242 -155 -129 -535 -270 -881 -328 -265
-45 -459 -59 -810 -60 -311 0 -332 1 -472 27 -372 67 -718 167 -782 225 -11
11 -39 29 -61 40 -22 11 -49 30 -60 42 -11 12 -37 31 -58 41 -20 11 -37 23
-37 28 0 5 -16 28 -36 52 -80 96 -112 205 -79 270 21 42 74 99 92 99 17 0 16
-10 -2 -34 -19 -25 -19 -79 0 -115 14 -28 58 -51 96 -51 20 0 24 -12 33 -94 4
-27 13 -61 22 -74 16 -24 19 -25 104 -19 102 8 119 0 129 -58 8 -53 45 -78
121 -83 54 -4 69 -1 126 29 71 36 84 32 84 -22 0 -29 41 -72 83 -88 78 -30
169 -5 248 66 l40 37 25 -30 c14 -16 29 -39 34 -51 12 -29 50 -53 100 -64 84
-19 230 26 256 79 18 37 21 37 79 -17 l57 -51 78 0 c96 0 123 9 177 62 l41 40
39 -30 c47 -37 83 -49 173 -58 l71 -7 66 72 c58 64 67 70 82 58 52 -46 132
-60 194 -34 31 14 100 81 109 107 3 11 12 10 46 -3 110 -44 229 5 265 108 14
40 15 40 83 51 38 6 77 15 87 19 24 10 38 48 31 85 -6 26 -2 32 31 51 45 27
55 51 55 137 l1 67 25 -30 c14 -16 34 -47 45 -69z m-3261 -531 c246 -163 675
-295 1060 -325 218 -17 746 -6 990 20 167 18 479 87 639 140 264 88 387 148
481 234 123 112 125 113 69 31 -59 -88 -179 -185 -307 -249 -85 -43 -311 -126
-382 -141 -36 -7 -114 -25 -175 -39 -132 -31 -301 -51 -610 -74 -199 -15 -265
-15 -495 -5 -415 18 -559 38 -825 114 -255 74 -394 146 -516 268 -69 70 -129
163 -129 202 0 7 29 -19 65 -58 36 -40 97 -93 135 -118z"/>
<path d="M2357 5149 c-42 -25 -74 -147 -48 -188 8 -12 14 -11 43 5 38 22 74
87 84 152 l7 42 -34 0 c-19 0 -42 -5 -52 -11z m16 -55 c8 -8 -3 -34 -14 -34
-5 0 -9 9 -9 20 0 19 11 26 23 14z"/>
<path d="M3126 5060 c-36 -11 -66 -38 -66 -61 0 -9 17 -32 37 -50 42 -37 181
-129 194 -129 14 0 10 62 -7 121 -26 86 -47 109 -114 124 -8 2 -28 -1 -44 -5z
m109 -120 c3 -5 -1 -10 -9 -10 -8 0 -18 5 -21 10 -3 6 1 10 9 10 8 0 18 -4 21
-10z"/>
<path d="M1473 3970 c-22 -13 -35 -31 -43 -60 -15 -54 -1 -80 44 -80 36 0 137
17 144 25 2 2 2 16 -2 30 -8 30 -30 32 -71 5 -37 -25 -45 -25 -45 -1 0 11 14
31 31 44 59 46 9 78 -58 37z"/>
<path d="M1514 3785 c-8 -21 16 -46 74 -78 60 -33 105 -39 110 -14 4 20 -44
107 -58 107 -6 0 -10 -10 -10 -21 0 -23 -8 -23 -73 5 -34 15 -38 15 -43 1z"/>
<path d="M4471 3935 c-39 -34 -65 -103 -58 -155 7 -54 20 -68 70 -75 61 -9
305 9 319 23 9 9 5 19 -18 43 -42 44 -142 118 -191 141 -23 11 -47 26 -54 34
-17 20 -33 17 -68 -11z m29 -105 c0 -29 -4 -40 -15 -40 -20 0 -29 23 -21 55
11 42 36 31 36 -15z m133 -11 c75 -50 75 -58 -5 -70 -61 -10 -78 2 -78 56 0
55 17 58 83 14z"/>
<path d="M2881 3701 c-23 -23 -34 -71 -29 -122 3 -33 5 -34 58 -42 74 -11 357
-4 370 9 17 17 -17 49 -100 93 -146 77 -260 101 -299 62z m107 -63 c31 -31 -2
-67 -48 -53 -23 7 -25 18 -10 46 12 21 40 25 58 7z m140 -38 l47 -30 -50 2
c-46 3 -50 5 -53 31 -2 15 -1 27 2 27 3 0 27 -14 54 -30z"/>
<path d="M4876 2951 c-16 -18 -17 -27 -6 -93 24 -152 44 -196 97 -212 40 -12
63 24 63 97 0 75 -25 136 -78 190 -41 42 -52 45 -76 18z m109 -191 c4 -6 4
-18 1 -26 -4 -12 -10 -13 -26 -4 -11 6 -20 17 -20 25 0 17 36 20 45 5z"/>
<path d="M3163 2857 c-15 -13 -40 -31 -55 -40 -29 -18 -37 -51 -15 -60 36 -13
157 44 157 75 0 11 -38 48 -49 48 -5 0 -22 -10 -38 -23z"/>
<path d="M2945 2836 c-19 -14 -19 -16 -2 -48 26 -49 117 -107 117 -75 0 9 -5
19 -10 22 -6 4 -10 24 -8 46 1 21 -2 43 -8 49 -18 18 -68 22 -89 6z"/>
<path d="M3740 2754 c-96 -81 -76 -178 69 -325 43 -43 83 -79 89 -79 14 0 20
21 32 115 17 134 0 196 -73 273 -48 49 -73 53 -117 16z m74 -50 c10 -4 16 -18
16 -40 0 -23 8 -41 27 -58 21 -20 26 -34 26 -71 0 -60 -10 -69 -52 -44 -27 16
-31 22 -21 34 7 8 18 15 25 15 18 0 26 27 12 38 -7 5 -22 13 -35 16 -22 7 -52
52 -52 80 0 8 8 20 18 25 21 13 17 12 36 5z"/>
<path d="M2483 2718 c-34 -36 -67 -118 -67 -170 0 -79 74 -150 141 -133 14 3
44 24 66 46 37 37 39 42 33 82 -12 74 -29 117 -60 152 -41 46 -83 55 -113 23z
m84 -81 c33 -65 12 -147 -39 -147 -24 0 -23 6 7 42 31 37 28 50 -13 63 -36 10
-42 37 -16 66 20 23 41 15 61 -24z"/>
<path d="M1355 2948 c-48 -38 -71 -130 -44 -179 17 -33 39 -5 39 50 0 65 18
96 55 96 l30 0 -4 -102 c-3 -89 -1 -103 13 -103 40 0 70 124 46 194 -21 65
-83 85 -135 44z"/>
<path d="M1356 2703 c-16 -17 -4 -66 23 -94 33 -33 71 -39 71 -11 0 38 -76
123 -94 105z"/>
</g>
</svg>
