<?xml version="1.0" standalone="no"?>
<!DOCTYPE svg PUBLIC "-//W3C//DTD SVG 20010904//EN"
 "http://www.w3.org/TR/2001/REC-SVG-20010904/DTD/svg10.dtd">
<svg version="1.0" xmlns="http://www.w3.org/2000/svg"
 width="1280.000000pt" height="1211.000000pt" viewBox="0 0 1280.000000 1211.000000"
 preserveAspectRatio="xMidYMid meet">
<metadata>
Created by potrace 1.15, written by Peter Selinger 2001-2017
</metadata>
<g transform="translate(0.000000,1211.000000) scale(0.100000,-0.100000)"
fill="#e91e44" stroke="none">
<path d="M3245 12095 c-164 -25 -454 -137 -550 -211 -27 -21 -106 -68 -174
-104 -124 -64 -126 -66 -248 -200 -180 -197 -271 -306 -321 -385 -24 -38 -61
-95 -82 -125 -53 -77 -84 -142 -136 -283 -25 -67 -69 -165 -98 -217 -29 -52
-72 -144 -96 -203 -45 -113 -64 -137 -48 -61 11 52 0 76 -26 55 -24 -20 -122
-226 -155 -326 -62 -187 -81 -260 -81 -312 0 -71 18 -66 45 13 28 78 63 144
76 144 14 0 9 -28 -30 -168 -37 -132 -59 -183 -105 -236 -42 -47 -46 -75 -33
-197 10 -88 9 -103 -11 -170 -29 -98 -57 -264 -82 -495 -12 -104 -28 -229 -35
-279 -47 -297 -66 -608 -66 -1070 0 -639 20 -902 111 -1495 11 -69 24 -168 30
-220 21 -196 62 -409 108 -560 38 -128 46 -169 47 -236 0 -81 0 -82 -66 -210
-37 -71 -76 -160 -89 -199 -12 -38 -43 -121 -69 -185 -56 -134 -67 -165 -116
-320 -51 -162 -123 -359 -225 -615 -48 -121 -97 -251 -109 -290 -29 -89 -200
-524 -284 -721 -36 -83 -90 -219 -121 -302 -30 -83 -77 -199 -104 -259 -68
-147 -93 -232 -99 -333 -4 -66 -2 -88 8 -97 8 -6 61 -14 119 -18 104 -7 106
-7 202 29 53 20 119 41 147 46 29 5 59 14 69 19 9 5 80 28 157 51 77 23 166
53 197 66 109 46 182 22 252 -81 46 -68 168 -192 234 -237 54 -37 172 -84 236
-93 26 -4 104 -2 175 5 109 10 150 10 287 -4 87 -9 245 -26 349 -37 282 -29
413 -48 478 -70 86 -29 164 -35 209 -16 l37 15 -1 74 c-1 42 7 100 17 138 10
36 18 97 18 135 1 44 6 75 14 83 19 19 16 36 -12 93 -28 54 -35 113 -17 131
15 15 50 -1 112 -53 26 -22 69 -48 96 -58 27 -11 85 -35 129 -54 147 -63 396
-117 540 -117 107 0 381 66 523 127 181 77 225 101 296 160 124 105 177 142
214 153 35 11 44 8 202 -75 91 -47 182 -100 203 -118 l38 -32 -21 -40 c-17
-32 -20 -50 -15 -93 17 -139 -54 -188 -318 -221 -171 -22 -210 -40 -246 -113
-26 -55 -27 -93 -1 -143 l20 -40 -61 -127 c-50 -105 -62 -138 -63 -182 -1 -48
3 -59 29 -86 96 -101 398 -163 640 -130 50 7 161 15 248 18 152 7 160 8 178
31 11 13 18 29 16 34 -1 5 -39 29 -82 53 -75 41 -165 76 -280 108 -27 8 -79
26 -114 41 -50 21 -75 26 -122 23 l-59 -3 -2 138 c-1 75 -2 145 -2 155 -1 15
10 17 104 17 100 0 107 1 150 30 57 39 97 104 111 180 14 75 27 103 61 128 37
28 108 32 224 13 54 -8 146 -20 204 -26 130 -13 991 -12 1080 2 39 5 123 33
210 70 112 47 160 62 211 65 77 6 92 -5 62 -45 -28 -37 -92 -68 -219 -105 -91
-27 -111 -37 -124 -60 -13 -24 -13 -30 0 -54 24 -43 70 -68 176 -94 116 -28
270 -31 344 -7 l45 15 -27 13 c-29 14 -40 32 -32 53 8 21 83 65 169 98 74 29
86 31 175 26 103 -5 149 -20 415 -135 l130 -56 247 -4 247 -4 54 51 c30 28 61
51 69 51 8 0 26 8 39 18 13 11 72 45 132 76 124 67 206 136 237 203 19 42 22
59 17 128 -7 95 -22 147 -53 181 -34 36 -62 31 -80 -13 -18 -43 -13 -95 13
-142 17 -30 17 -32 -2 -68 -18 -34 -31 -42 -115 -76 -105 -41 -150 -79 -150
-126 0 -25 -7 -31 -67 -59 -94 -43 -175 -60 -341 -72 -156 -12 -185 -9 -358
36 l-102 26 -63 75 c-78 91 -134 181 -144 229 -5 31 -2 41 22 66 15 17 51 43
78 59 77 44 142 35 97 -14 -65 -72 -54 -156 29 -216 57 -42 170 -87 268 -106
104 -22 326 -16 408 10 74 23 248 130 279 171 25 32 26 39 20 109 l-7 74 38
24 c60 38 69 52 49 82 -20 31 -46 42 -151 63 -97 19 -142 54 -130 100 13 50
24 206 25 331 0 108 2 122 16 117 9 -3 22 -6 29 -6 8 0 69 -37 136 -82 85 -57
148 -91 203 -109 103 -35 124 -28 186 63 69 102 81 112 163 131 136 31 434 53
465 34 32 -21 -5 -61 -103 -110 -66 -33 -98 -90 -125 -223 -11 -55 -27 -120
-36 -146 -14 -43 -14 -50 0 -80 9 -18 26 -39 37 -46 29 -18 251 -44 424 -49
163 -5 347 6 750 47 160 16 352 34 428 40 94 7 146 16 163 26 51 34 52 145 4
264 -10 25 -21 61 -24 81 -14 81 -103 157 -206 175 -19 3 -64 14 -100 24 -113
32 -266 49 -555 60 -160 7 -290 16 -303 23 -42 20 -46 104 -8 162 32 48 56 53
362 70 320 17 536 34 543 40 6 6 4 59 -4 105 -10 62 -2 64 204 50 205 -14 385
-3 518 31 115 29 137 65 110 183 -40 174 -65 496 -69 891 l-3 251 44 89 c40
79 45 98 49 173 5 88 -11 229 -35 322 -8 30 -23 106 -33 168 -21 119 -36 160
-78 205 -23 24 -24 27 -6 27 10 0 44 -7 74 -15 64 -17 153 -19 181 -5 23 13
49 61 49 92 -1 50 -33 70 -156 97 -49 10 -111 31 -138 45 -55 29 -91 32 -212
14 -115 -17 -145 -6 -226 80 -74 79 -152 175 -228 282 -29 41 -88 116 -130
165 -42 50 -89 110 -105 135 -87 141 -258 250 -455 289 -336 65 -872 103
-1475 102 -192 0 -313 4 -384 14 -234 33 -437 14 -863 -80 -37 -8 -172 -24
-300 -35 -128 -11 -249 -24 -268 -29 -19 -5 -78 -21 -131 -34 -321 -84 -665
-50 -1189 117 -58 19 -136 41 -175 50 -127 29 -185 91 -185 195 0 29 -9 115
-20 190 -11 75 -22 165 -24 201 -2 36 -13 91 -25 123 -15 40 -23 92 -27 170
-13 257 -89 734 -166 1037 -27 107 -76 301 -109 431 -49 199 -68 255 -117 360
-32 68 -62 137 -66 154 -9 34 -21 45 -52 45 -29 0 -48 25 -69 90 -27 84 -152
348 -189 399 -18 25 -46 78 -61 116 -48 117 -105 181 -134 152 -21 -21 -11
-63 34 -140 25 -42 57 -109 71 -149 15 -40 60 -154 102 -253 125 -299 208
-544 252 -745 16 -74 46 -196 65 -270 50 -186 166 -823 215 -1172 63 -455 77
-955 29 -1003 -6 -6 -78 -10 -177 -9 -161 1 -172 2 -307 38 -77 21 -198 49
-270 62 -213 40 -304 62 -358 89 -104 51 -110 86 -36 223 36 66 53 112 59 155
5 35 16 68 27 78 10 10 56 32 103 49 89 31 120 56 120 95 0 29 -39 103 -119
225 -82 125 -132 231 -138 294 -4 38 3 84 26 176 17 69 31 132 31 139 0 7 13
29 30 47 43 50 57 103 41 167 -7 29 -16 89 -20 135 -7 76 -13 94 -71 205 -34
67 -75 140 -91 163 -51 75 -151 158 -255 212 -61 31 -134 80 -189 127 -49 42
-113 87 -142 102 -48 23 -60 25 -130 18 -99 -8 -201 11 -324 61 -85 34 -96 36
-167 31 -57 -4 -116 -18 -227 -57 -82 -29 -199 -69 -260 -90 -125 -42 -205
-80 -255 -121 -40 -34 -65 -37 -79 -10 -17 31 -84 51 -174 51 -45 0 -110 5
-144 10 -51 9 -70 7 -100 -5 -84 -35 -142 -130 -167 -267 -7 -40 -22 -91 -33
-113 -29 -56 -37 -103 -22 -121 9 -11 25 -13 70 -8 48 5 65 3 103 -15 55 -27
106 -83 106 -116 0 -13 5 -27 10 -30 6 -3 10 -13 10 -21 0 -10 -13 -14 -51
-14 -41 0 -64 -8 -121 -41 -138 -81 -207 -179 -213 -304 -2 -48 -10 -76 -31
-112 -56 -97 -74 -137 -74 -164 0 -37 90 -213 140 -273 54 -64 93 -95 232
-178 127 -76 218 -117 260 -118 30 0 56 -29 107 -120 22 -38 48 -68 70 -82 20
-12 42 -28 49 -36 20 -26 14 -107 -18 -205 -16 -52 -34 -117 -40 -146 -15 -81
-105 -289 -163 -375 -28 -44 -71 -112 -94 -153 -23 -41 -75 -116 -116 -166
-41 -51 -97 -126 -125 -167 -91 -137 -135 -161 -287 -155 -55 3 -108 4 -117 5
-9 0 -29 11 -44 24 -25 20 -29 33 -35 102 -4 44 -15 124 -23 178 -34 218 -40
392 -41 1146 0 646 2 768 18 915 59 561 128 959 247 1410 72 272 122 425 197
595 30 69 72 169 94 222 55 139 97 217 181 344 249 371 657 771 873 855 267
104 441 108 725 17 115 -37 177 -51 240 -55 79 -6 84 -5 71 11 -19 22 -148 99
-315 186 l-138 73 -167 -6 c-309 -11 -425 -44 -640 -184 -115 -75 -171 -121
-344 -285 -165 -157 -240 -243 -378 -433 -195 -271 -376 -699 -521 -1235 -106
-392 -127 -482 -148 -620 -11 -74 -34 -223 -51 -330 -91 -593 -123 -998 -123
-1590 0 -467 16 -632 127 -1302 42 -251 43 -258 26 -291 -10 -19 -21 -69 -24
-113 -11 -142 -15 -161 -41 -187 -13 -14 -40 -28 -58 -31 -59 -11 -70 -75 -36
-206 20 -75 25 -145 14 -174 -5 -12 -10 -13 -25 -6 -30 17 -47 61 -59 156 -7
49 -20 123 -30 164 -66 268 -179 966 -204 1255 -38 447 -41 507 -39 985 1 612
8 714 79 1289 21 175 62 390 137 726 53 232 80 329 136 485 39 107 89 254 112
325 76 242 100 310 139 390 22 44 57 121 78 172 53 123 122 237 258 424 86
119 141 182 226 262 62 57 178 175 258 261 131 142 155 163 250 220 262 159
417 214 610 216 41 1 95 5 120 8 l45 7 -34 24 c-43 31 -144 37 -276 16z
m-1784 -1938 c-8 -8 -11 -4 -11 14 0 33 14 47 18 19 2 -12 -1 -27 -7 -33z
m-11 -89 c0 -22 -45 -113 -60 -123 -29 -18 -17 92 16 143 12 19 18 21 30 11 8
-6 14 -20 14 -31z m4140 -650 c20 -34 27 -78 12 -78 -26 0 -62 76 -47 99 9 16
14 14 35 -21z m75 -215 c25 -60 164 -618 171 -685 14 -140 -36 -48 -82 152
-45 193 -65 271 -89 339 -29 86 -38 143 -30 181 7 34 19 39 30 13z m-3010
-183 c-3 -5 -10 -10 -16 -10 -5 0 -9 5 -9 10 0 6 7 10 16 10 8 0 12 -4 9 -10z
m-105 -29 c14 -10 26 -30 28 -44 4 -33 -9 -34 -96 -7 -75 24 -115 25 -131 6
-15 -18 -34 -132 -25 -158 3 -12 39 -56 79 -98 76 -82 98 -131 71 -158 -20
-21 -48 -2 -87 60 -43 70 -79 108 -100 108 -10 0 -31 12 -48 26 -37 31 -40 68
-11 131 39 88 77 132 128 148 60 19 157 12 192 -14z m1469 -15 c65 -34 79
-112 28 -150 -28 -21 -29 -21 -43 -2 -8 11 -14 37 -14 59 0 21 -5 47 -11 58
-10 20 -6 49 6 49 3 0 19 -7 34 -14z m-199 -72 c0 -8 -4 -14 -10 -14 -5 0 -10
9 -10 21 0 11 5 17 10 14 6 -3 10 -13 10 -21z m-1305 -83 c10 -17 -18 -61 -41
-67 -48 -12 -59 23 -18 55 29 23 49 27 59 12z m645 -95 c0 -8 -5 -18 -11 -22
-14 -8 -33 11 -25 25 10 16 36 13 36 -3z m670 -91 c0 -8 -2 -15 -4 -15 -2 0
-6 7 -10 15 -3 8 -1 15 4 15 6 0 10 -7 10 -15z m-457 -47 c-10 -11 -19 -15
-21 -8 -5 15 18 41 30 34 5 -3 1 -15 -9 -26z m360 -3 c-3 -8 -9 -15 -14 -15
-10 0 -12 24 -3 33 11 11 24 -3 17 -18z m-326 -221 c-9 -9 -28 6 -21 18 4 6
10 6 17 -1 6 -6 8 -13 4 -17z m2453 -30 c0 -24 -4 -34 -12 -32 -24 8 -22 68 2
68 5 0 10 -16 10 -36z m-2192 -11 c4 -26 -49 -90 -66 -79 -19 12 -15 83 6 95
27 17 57 9 60 -16z m-2038 -18 c0 -24 -24 -44 -37 -31 -9 8 14 56 27 56 5 0
10 -11 10 -25z m710 -29 c0 -28 -12 -46 -30 -46 -27 0 -31 13 -14 38 17 25 44
29 44 8z m2443 -14 c28 -29 27 -102 -2 -186 -12 -33 -21 -69 -21 -81 0 -12
-11 -32 -24 -44 -24 -23 -29 -23 -153 -17 -118 7 -131 5 -160 -13 -18 -12 -33
-28 -33 -36 0 -18 39 -35 80 -35 27 0 40 -15 40 -48 0 -53 81 -70 132 -27 34
29 41 30 58 11 24 -30 221 -439 218 -454 -5 -25 -46 -41 -121 -48 l-68 -6 7
-41 c9 -54 7 -94 -9 -126 -15 -31 -72 -71 -101 -71 -45 0 -97 -22 -107 -44 -9
-19 -5 -35 22 -87 27 -53 33 -77 35 -141 3 -64 0 -81 -17 -102 -38 -48 -113
-55 -289 -26 -87 14 -202 11 -259 -6 -79 -23 -111 -61 -176 -204 -81 -178 -96
-218 -105 -280 -6 -46 -4 -64 15 -110 13 -31 33 -92 44 -136 21 -83 70 -354
78 -434 6 -59 -25 -141 -82 -219 -24 -32 -55 -77 -69 -100 -17 -27 -48 -53
-91 -78 -49 -28 -68 -45 -77 -71 -17 -45 -34 -38 -82 33 -23 33 -73 92 -113
132 -87 88 -143 191 -143 262 0 76 -44 108 -210 155 -52 15 -104 33 -115 40
-11 7 -35 17 -53 21 -101 22 -241 236 -272 418 -16 87 -8 116 75 296 79 170
138 341 170 495 12 62 30 127 39 144 35 67 141 99 296 88 126 -9 158 -19 208
-62 53 -45 74 -84 81 -154 6 -51 8 -55 34 -58 39 -5 53 11 72 76 9 31 26 73
36 94 11 21 22 59 26 85 9 70 16 79 91 107 38 15 87 40 109 56 78 57 132 163
140 273 5 64 2 77 -21 121 -30 56 -34 112 -10 161 15 32 43 55 124 103 40 23
62 60 110 174 37 91 78 133 142 143 24 4 86 21 138 37 113 34 168 43 267 42
62 0 77 -4 96 -22z m-1353 8 c0 -5 -7 -10 -15 -10 -8 0 -15 5 -15 10 0 6 7 10
15 10 8 0 15 -4 15 -10z m-1070 -132 c0 -19 -2 -20 -10 -8 -13 19 -13 30 0 30
6 0 10 -10 10 -22z m3574 -90 c15 -25 19 -105 5 -114 -12 -7 -35 44 -44 94 -5
34 -4 42 9 42 8 0 22 -10 30 -22z m45 -271 c14 -49 11 -182 -4 -182 -24 0 -58
187 -41 231 10 25 31 2 45 -49z m-4419 -163 c0 -8 -4 -12 -10 -9 -5 3 -10 10
-10 16 0 5 5 9 10 9 6 0 10 -7 10 -16z m-5 -409 c0 -170 -3 -247 -11 -255 -9
-9 -15 -3 -24 25 -9 27 -11 95 -7 244 5 213 11 261 30 242 7 -7 11 -95 12
-256z m4465 230 c12 -15 8 -94 -6 -117 -12 -19 -24 16 -24 75 0 58 8 69 30 42z
m40 -271 c14 -46 20 -94 20 -155 0 -157 -29 -92 -50 111 -12 117 -12 110 0
110 5 0 18 -30 30 -66z m-4512 -276 c13 -13 16 -106 6 -146 -16 -59 -57 26
-47 98 8 63 16 73 41 48z m4550 -194 c15 -51 15 -104 2 -104 -17 0 -30 47 -30
108 0 61 10 60 28 -4z m-1354 -55 c15 -11 45 -48 67 -80 22 -33 54 -75 70 -93
36 -41 80 -146 108 -257 32 -127 26 -349 -9 -349 -12 0 -37 82 -55 180 -35
191 -79 302 -180 459 -42 67 -85 145 -85 156 0 14 60 3 84 -16z m-624 -74 c16
-19 6 -45 -18 -45 -23 0 -56 35 -47 49 9 16 51 13 65 -4z m1095 -71 c341 -70
330 -67 330 -84 0 -30 -66 -49 -212 -59 -78 -5 -147 -12 -153 -16 -6 -4 -5
-16 5 -35 18 -35 68 -53 126 -44 71 10 237 53 331 85 130 44 254 55 497 42
169 -8 205 -13 219 -27 16 -16 16 -18 -3 -33 -11 -8 -38 -23 -60 -33 -47 -20
-69 -44 -61 -65 9 -25 55 -17 210 35 179 61 277 78 362 61 32 -6 106 -18 164
-26 57 -9 121 -20 143 -26 40 -11 81 -43 75 -60 -2 -5 -41 -27 -88 -48 -84
-37 -181 -89 -435 -231 -71 -40 -154 -84 -184 -97 -30 -13 -122 -63 -205 -110
-83 -47 -191 -106 -240 -129 -109 -54 -136 -55 -386 -18 -138 21 -216 27 -372
28 -191 1 -197 2 -221 24 l-25 23 19 62 c37 121 51 359 28 465 -5 28 -44 116
-85 196 -41 81 -74 153 -74 161 0 18 20 15 295 -41z m-553 -14 c94 -107 157
-251 198 -454 23 -113 23 -217 0 -320 -5 -24 -14 -84 -20 -134 -5 -50 -24
-151 -41 -224 -20 -88 -29 -146 -25 -170 4 -21 29 -93 56 -161 28 -68 50 -140
50 -159 0 -20 7 -55 16 -79 8 -24 26 -110 39 -190 29 -171 39 -203 93 -291
108 -176 118 -215 102 -380 -21 -223 -54 -339 -115 -409 -59 -66 -115 -148
-165 -240 -47 -87 -49 -94 -35 -116 36 -54 78 -26 238 162 108 126 155 223
207 425 37 142 9 291 -88 479 -80 157 -83 165 -91 361 -8 198 -7 195 -103 328
l-60 83 12 172 c13 188 17 197 74 197 17 0 55 -11 84 -25 78 -36 248 -65 717
-122 36 -5 58 -14 77 -34 31 -30 34 -55 18 -140 -6 -30 -13 -101 -15 -159 -2
-58 -20 -197 -39 -310 -19 -113 -45 -277 -56 -364 -21 -164 -51 -316 -95 -491
-42 -166 -203 -622 -267 -754 -33 -69 -75 -165 -95 -215 -20 -50 -43 -102 -52
-116 -36 -57 -181 -249 -225 -298 -52 -57 -219 -173 -325 -226 -168 -84 -496
-176 -658 -184 -72 -3 -93 0 -188 32 -121 41 -264 109 -333 159 -26 19 -65 44
-87 55 -87 44 -156 150 -176 269 -38 230 -40 257 -39 652 0 428 6 487 55 586
13 27 47 72 74 98 58 56 78 103 111 256 14 69 36 132 62 185 58 116 80 182 83
256 l2 65 96 5 c75 4 99 9 116 24 12 11 21 23 21 28 0 4 20 56 45 114 49 114
77 206 100 324 21 106 19 137 -16 241 -38 114 -35 142 24 218 61 77 95 149
117 244 10 45 29 111 41 147 43 126 27 340 -33 420 -23 32 -21 63 6 68 27 6
92 -62 206 -213 181 -241 217 -353 240 -750 14 -246 18 -285 47 -400 14 -60
26 -146 30 -215 7 -137 -6 -199 -66 -318 -50 -99 -71 -171 -80 -277 -7 -69
-15 -98 -54 -178 -64 -130 -278 -448 -352 -522 -33 -33 -118 -99 -190 -147
-71 -47 -145 -102 -163 -122 -18 -19 -61 -52 -95 -72 -118 -70 -154 -127 -112
-174 14 -16 23 -16 98 -4 45 8 117 18 161 24 95 12 124 29 190 111 41 49 75
77 169 134 160 96 233 157 253 209 5 12 0 16 -24 16 -32 0 -58 -18 -149 -102
-28 -26 -57 -48 -62 -48 -6 0 -59 -36 -118 -80 -105 -78 -170 -111 -246 -125
-27 -5 -37 -4 -37 5 0 22 76 84 165 136 126 72 176 114 267 222 73 88 244 337
310 452 14 25 53 130 87 234 34 104 66 197 72 207 28 54 77 -23 89 -140 4 -42
20 -110 35 -151 21 -55 28 -95 29 -150 1 -100 -3 -112 -74 -210 -66 -92 -74
-124 -35 -142 23 -11 29 -8 69 31 81 79 126 204 126 347 0 93 -41 304 -72 374
-37 82 -47 143 -54 315 -7 191 -20 258 -70 358 -58 114 -73 194 -84 441 -10
236 -28 335 -86 490 -66 174 -166 339 -247 407 -83 70 -117 109 -117 135 0 45
23 50 257 52 l151 2 44 -50z m1705 15 c29 -14 53 -28 53 -30 0 -6 -207 3 -259
11 -39 6 -32 18 19 32 64 18 129 14 187 -13z m3188 -52 c55 -17 41 -59 -35
-108 -19 -13 -71 -55 -115 -94 -66 -59 -109 -86 -242 -152 -159 -79 -208 -115
-201 -148 10 -44 132 3 316 119 143 91 213 144 341 255 45 39 107 84 139 100
55 29 61 30 182 28 71 -1 228 -15 365 -33 132 -17 312 -35 400 -40 88 -5 180
-15 205 -23 44 -13 45 -14 43 -53 -3 -43 -95 -242 -115 -248 -7 -3 -132 -10
-278 -16 -297 -12 -398 -22 -550 -51 -206 -39 -260 -52 -660 -154 -223 -57
-452 -114 -510 -125 -58 -12 -161 -40 -230 -62 -404 -128 -616 -161 -1100
-173 -270 -7 -531 -22 -576 -34 -17 -5 -37 -5 -44 -1 -43 27 71 150 277 302
68 49 123 93 123 97 0 15 -25 31 -50 31 -41 0 -120 -62 -343 -267 -55 -50
-125 -105 -156 -121 l-56 -29 -258 27 c-142 15 -263 32 -268 37 -17 17 11 51
81 97 36 23 90 53 120 66 55 23 83 38 395 214 94 53 269 146 390 207 l220 111
115 10 c119 9 189 23 550 108 269 62 584 112 855 134 91 7 639 -2 670 -11z
m-5575 -30 c39 -22 117 -144 136 -211 28 -96 6 -351 -30 -339 -11 3 -33 65
-56 154 -6 26 -34 72 -69 115 -32 40 -66 87 -75 105 -20 40 -21 112 -2 158 17
40 49 46 96 18z m7288 -93 c31 -11 78 -35 104 -53 55 -37 241 -249 630 -717
69 -83 122 -120 179 -126 123 -14 125 -15 84 -73 -15 -22 -27 -57 -31 -92 -6
-52 -4 -58 24 -90 17 -19 47 -44 66 -54 28 -15 36 -26 36 -48 0 -39 -19 -42
-92 -14 -93 37 -105 39 -129 26 -43 -22 -111 -14 -240 30 -176 60 -181 61
-230 61 -94 0 -158 -82 -210 -268 -25 -90 -56 -155 -69 -147 -14 9 -12 64 6
188 15 101 15 113 -1 180 -25 102 -48 162 -125 327 -58 122 -72 164 -90 260
-32 171 -67 238 -131 253 -74 18 -109 86 -89 174 9 44 23 66 72 119 82 87 131
101 236 64z m-7369 -259 c17 -21 40 -60 51 -86 43 -100 13 -286 -34 -213 -41
64 -87 338 -57 338 5 0 23 -17 40 -39z m-1461 -73 c-3 -7 -15 -44 -28 -82
l-23 -69 18 -126 c12 -86 15 -150 11 -205 -11 -132 -29 -143 -122 -71 -66 51
-81 55 -94 21 -5 -13 -14 -27 -19 -31 -19 -11 -12 -38 16 -67 33 -35 23 -48
-20 -25 -18 9 -52 18 -77 19 -35 2 -44 6 -40 18 6 21 4 80 -5 112 -6 23 -4 28
16 32 107 20 104 18 101 56 -7 95 -4 127 15 165 21 41 153 201 199 243 27 24
59 30 52 10z m8360 -84 c30 -34 29 -72 -12 -261 -19 -87 -44 -232 -56 -323
-24 -189 -33 -231 -61 -315 -15 -43 -23 -104 -30 -215 -14 -244 -34 -301 -84
-237 -54 72 -66 131 -63 315 3 162 2 169 -23 222 -14 30 -47 83 -73 118 -40
54 -46 68 -46 111 0 39 -10 67 -50 144 -27 52 -50 102 -50 110 0 22 -36 49
-61 45 -15 -2 -33 -23 -58 -68 -36 -63 -39 -65 -84 -72 -67 -9 -103 -35 -260
-184 -199 -190 -263 -216 -385 -155 -108 54 -203 49 -287 -15 -41 -30 -44 -32
-50 -14 -9 27 -63 70 -88 70 -12 0 -59 -14 -105 -30 -68 -24 -88 -27 -113 -18
-16 5 -45 7 -64 4 -47 -9 -115 -74 -115 -109 0 -35 20 -77 37 -77 8 0 32 -9
54 -20 42 -22 87 -77 123 -148 l21 -44 -28 -24 c-45 -38 -97 -47 -264 -42
-173 6 -176 7 -245 90 -24 29 -60 69 -81 90 l-38 38 -112 0 c-62 0 -176 -5
-254 -10 -210 -14 -340 -2 -440 43 -275 123 -444 201 -506 235 -40 22 -94 43
-121 46 -59 9 -98 26 -93 40 6 20 70 56 126 73 44 12 80 14 166 9 60 -3 171
-1 245 4 74 5 266 14 425 20 237 9 315 15 425 36 255 48 510 112 765 194 179
57 673 189 1040 276 233 56 549 86 810 77 133 -5 141 -6 163 -29z m202 -106
c0 -66 -11 -144 -39 -287 -47 -230 -74 -413 -96 -641 -47 -494 -85 -768 -122
-882 -30 -92 -44 -114 -67 -105 -31 12 -38 56 -32 187 12 236 40 443 126 930
22 124 51 302 65 395 26 176 45 289 71 412 17 80 42 110 76 92 15 -8 18 -22
18 -101z m-6014 -33 c-3 -9 -10 -13 -16 -10 -12 7 -13 48 -3 59 11 11 27 -30
19 -49z m-2498 -37 c7 -7 12 -26 12 -42 l-1 -31 -19 24 c-31 37 -24 81 8 49z
m-808 -69 c8 -22 24 -49 37 -59 32 -25 14 -33 -28 -12 -31 15 -34 22 -37 65
-4 58 10 61 28 6z m919 -26 c17 -68 58 -176 98 -256 28 -57 31 -68 18 -73 -19
-8 -89 37 -112 72 -20 31 -42 145 -43 221 0 92 21 112 39 36z m196 -87 c17
-12 17 -13 -9 -20 -15 -4 -37 -4 -47 -1 -16 5 -18 10 -8 21 15 18 40 18 64 0z
m2141 -40 c-7 -34 -26 -51 -26 -22 0 37 13 77 23 67 5 -5 7 -25 3 -45z m6202
30 c10 -14 32 -60 47 -103 16 -43 43 -101 62 -128 48 -73 73 -154 83 -267 10
-121 -2 -178 -61 -286 -55 -101 -73 -153 -57 -164 22 -13 98 -9 134 8 67 32
148 145 174 244 6 25 16 62 21 83 11 43 68 111 110 133 16 8 45 14 66 14 40 0
103 -31 103 -51 0 -6 -31 -41 -70 -78 -94 -90 -95 -117 -7 -182 15 -11 27 -27
27 -34 0 -21 -45 -51 -97 -64 -108 -27 -122 -32 -144 -50 -31 -25 -29 -76 5
-138 26 -45 27 -51 27 -227 1 -173 -6 -256 -20 -256 -3 0 -55 14 -115 30 -83
22 -142 31 -240 36 -149 7 -207 -3 -232 -41 -14 -21 -14 -26 0 -54 9 -17 25
-35 36 -41 11 -6 24 -20 30 -31 10 -18 3 -29 -53 -88 -35 -37 -79 -95 -97
-127 -46 -83 -113 -184 -123 -184 -18 0 -40 78 -39 143 0 61 4 74 41 135 62
103 91 175 106 260 8 42 23 127 34 187 25 132 46 295 61 465 19 214 40 392 55
460 8 36 21 122 30 192 25 204 55 264 103 204z m-5499 -47 c162 -25 159 -79
-7 -115 -87 -18 -199 -18 -320 1 -117 19 -149 29 -179 57 -40 38 -31 56 35 63
31 3 64 8 72 9 30 6 337 -5 399 -15z m-3100 -73 c19 -52 20 -61 7 -74 -12 -12
-16 -11 -31 12 -22 33 -36 94 -28 124 8 33 25 13 52 -62z m-739 55 c16 -31 12
-41 -15 -41 -20 0 -25 5 -25 23 0 40 22 50 40 18z m3225 9 c3 -5 1 -10 -4 -10
-6 0 -11 5 -11 10 0 6 2 10 4 10 3 0 8 -4 11 -10z m1120 -60 c115 -13 396 -69
412 -82 18 -14 0 -43 -34 -56 -47 -17 -224 -42 -303 -42 -89 0 -224 21 -335
53 -65 18 -81 27 -83 44 -3 23 31 52 90 78 39 17 129 19 253 5z m-3280 -97
c57 -70 61 -78 45 -88 -25 -16 -105 69 -116 124 -10 48 10 38 71 -36z m7146
-3 c36 -20 24 -59 -35 -114 -29 -28 -59 -62 -66 -75 -9 -17 -10 -70 -5 -200 8
-226 -12 -476 -44 -539 -24 -47 -97 -107 -150 -123 -49 -14 -109 2 -143 38
-33 35 -45 93 -58 275 -5 79 -15 173 -21 210 -16 102 0 128 164 266 72 61 172
148 220 192 90 81 103 88 138 70z m-6863 -26 c22 -15 30 -58 12 -69 -10 -6
-34 27 -45 63 -8 26 2 28 33 6z m9276 -95 c27 -21 34 -43 16 -54 -17 -11 -110
45 -110 67 0 16 68 8 94 -13z m-8534 -13 c0 -26 -60 -110 -90 -126 -59 -31
-66 9 -15 86 37 55 46 62 83 63 17 1 22 -5 22 -23z m-966 -37 c16 -19 25 -46
30 -90 4 -35 14 -92 22 -127 22 -100 19 -184 -11 -240 -51 -95 -17 -183 87
-227 65 -26 103 -20 147 24 64 64 87 184 60 301 -13 57 -59 373 -55 378 8 8
71 -57 127 -131 75 -99 107 -165 153 -317 19 -63 45 -142 56 -174 31 -86 18
-146 -65 -311 -37 -71 -74 -136 -83 -142 -33 -26 -92 -13 -133 28 -16 16 -34
19 -119 19 -55 0 -100 4 -100 9 0 24 14 41 34 41 39 0 67 28 64 63 -3 35 -29
52 -90 62 -49 8 -87 41 -151 133 -61 89 -124 135 -243 176 -91 32 -120 56
-102 89 6 12 22 35 34 50 13 16 24 41 24 56 0 29 -39 90 -80 126 -55 48 -101
135 -71 135 5 0 28 -16 51 -35 62 -52 115 -58 154 -19 24 23 20 47 -17 100
l-34 49 144 0 c144 0 145 0 167 -26z m144 -43 c2 -9 1 -25 -3 -34 -5 -14 -7
-14 -15 -2 -14 22 -12 62 3 58 6 -3 14 -12 15 -22z m3407 13 l160 -10 276
-134 c168 -82 310 -144 365 -160 50 -14 187 -39 314 -55 368 -48 410 -56 547
-106 246 -89 392 -155 443 -201 71 -64 72 -73 60 -471 -6 -185 -14 -471 -19
-634 -8 -293 -9 -298 -35 -351 l-26 -54 -138 -27 c-181 -36 -228 -51 -281 -86
-54 -37 -71 -37 -102 -4 -21 22 -24 37 -29 128 -6 123 -15 140 -108 200 -96
62 -98 65 -77 131 29 93 5 142 -88 186 -73 33 -109 36 -342 25 -193 -10 -225
-17 -275 -63 -51 -46 -68 -98 -52 -159 21 -77 -13 -119 -58 -74 -24 24 -24 25
-1 172 27 178 10 242 -75 278 -38 17 -44 23 -44 50 0 17 11 52 24 78 41 83 41
89 2 132 -44 49 -47 94 -12 174 41 92 42 109 6 150 -18 19 -62 50 -98 68 -58
29 -77 33 -142 33 -82 0 -114 -12 -175 -67 -52 -45 -69 -83 -69 -158 0 -53 5
-75 27 -115 l27 -48 -25 -27 c-31 -32 -33 -79 -6 -151 l20 -51 -29 -40 c-34
-47 -65 -125 -75 -188 -4 -25 -2 -121 4 -215 6 -93 16 -242 21 -330 12 -184 6
-269 -22 -297 -10 -10 -22 -17 -26 -14 -24 15 -192 26 -411 27 -291 1 -286 0
-279 83 3 33 21 85 50 146 47 99 112 277 197 541 36 112 54 185 61 255 15 142
48 329 71 399 24 74 95 453 103 555 4 41 11 159 16 261 5 102 12 193 16 202
11 28 75 32 309 16z m-4364 -57 c24 -16 68 -55 98 -88 l54 -59 -39 -3 c-57 -5
-159 26 -194 58 -33 31 -38 64 -14 98 20 29 41 28 95 -6z m3941 -95 c-1 -87
-20 -235 -33 -242 -18 -12 -31 39 -25 94 13 123 25 207 32 224 13 36 26 -1 26
-76z m4002 62 c-10 -16 -24 -9 -24 12 0 18 2 19 15 9 8 -7 12 -16 9 -21z m261
17 c18 -13 18 -14 -3 -25 -25 -13 -122 -18 -140 -7 -18 11 -6 24 31 35 48 14
91 13 112 -3z m-1049 -71 c21 -21 24 -31 19 -58 -9 -40 -22 -57 -45 -57 -22 0
-34 15 -50 64 -12 37 -11 41 10 58 29 24 36 23 66 -7z m2954 -55 c23 -27 37
-50 32 -50 -19 0 -107 65 -110 83 -7 35 36 17 78 -33z m-8383 -19 c30 -45 30
-104 0 -154 -35 -57 -71 -77 -142 -77 -100 0 -161 45 -172 126 -7 51 7 62 94
81 46 9 76 22 93 39 20 19 33 24 65 22 32 -2 44 -9 62 -37z m-1952 10 c22 -10
66 -42 98 -70 32 -28 93 -71 135 -96 98 -56 155 -105 176 -150 20 -40 22 -35
-79 -197 -55 -90 -67 -146 -40 -198 l17 -34 24 40 c13 21 37 80 54 129 52 154
91 206 129 171 38 -35 58 -149 31 -181 -8 -10 -5 -19 15 -39 31 -31 37 -110 8
-104 -13 2 -19 14 -21 41 -4 46 -16 47 -42 5 -27 -44 -25 -74 5 -110 39 -47
35 -60 -51 -163 -47 -57 -64 -86 -64 -110 0 -25 -136 -292 -173 -341 -129
-169 -439 -478 -585 -584 -41 -30 -114 -83 -160 -118 -99 -73 -134 -93 -149
-84 -17 11 57 500 106 707 11 44 22 114 25 155 3 47 27 148 62 270 31 107 76
272 101 365 91 349 121 433 221 603 74 125 80 129 157 93z m7163 4 c16 -16
-16 -35 -83 -50 -71 -16 -78 -16 -93 -1 -15 15 -15 17 0 32 9 9 31 20 49 25
32 8 117 4 127 -6z m2908 -10 c21 -32 15 -56 -19 -75 -24 -13 -29 -13 -37 0
-14 22 -12 53 6 78 20 28 30 28 50 -3z m524 -14 c14 -44 8 -81 -7 -41 -17 43
-24 80 -15 80 5 0 15 -17 22 -39z m-10830 -13 c0 -24 -16 -56 -23 -48 -3 3 -2
20 0 38 6 36 23 44 23 10z m8698 -5 c35 -22 80 -99 93 -161 6 -30 14 -100 18
-155 6 -86 4 -103 -11 -121 -22 -28 -48 -12 -66 40 -29 81 -45 113 -72 139
-52 50 -85 18 -139 -133 -39 -111 -92 -170 -117 -131 -12 20 17 482 32 506 8
12 29 27 47 32 43 13 186 2 215 -16z m1996 -66 c12 -19 3 -32 -19 -24 -17 7
-21 51 -3 45 6 -2 16 -12 22 -21z m-3030 -46 c13 -23 21 -59 24 -112 4 -73 3
-79 -21 -103 -30 -30 -58 -33 -98 -9 -33 20 -69 86 -69 127 0 41 25 82 59 96
17 7 36 19 42 27 18 21 41 12 63 -26z m681 -242 c-7 -227 -10 -254 -29 -292
-11 -22 -27 -43 -33 -45 -16 -4 -16 26 -3 163 6 55 15 152 20 215 15 165 30
247 42 226 6 -11 7 -111 3 -267z m-986 216 c59 -50 49 -165 -15 -165 -33 0
-81 25 -94 50 -6 12 -12 39 -13 62 -3 73 64 102 122 53z m-6529 -46 c0 -6 -4
-7 -10 -4 -5 3 -10 11 -10 16 0 6 5 7 10 4 6 -3 10 -11 10 -16z m6278 -78 c10
-6 10 -10 -3 -21 -18 -15 -42 0 -31 19 8 13 16 14 34 2z m-6035 -153 c18 -18
72 -62 121 -98 106 -77 134 -119 117 -173 -15 -45 -106 -168 -221 -297 -78
-88 -101 -122 -142 -210 -62 -135 -72 -153 -126 -223 -49 -64 -78 -83 -115
-73 -46 11 -70 109 -46 186 5 19 17 59 25 88 7 29 41 105 73 168 71 138 95
231 111 429 6 76 13 141 15 143 2 2 13 -11 24 -29 24 -39 27 -94 10 -200 -6
-39 -9 -73 -6 -76 12 -12 46 20 58 54 11 35 8 180 -7 274 -11 71 54 93 109 37z
m6385 -183 c22 -28 44 -154 67 -395 8 -85 25 -210 37 -276 11 -67 18 -129 15
-138 -10 -26 -41 -19 -76 18 -29 30 -35 46 -47 118 -22 137 -53 666 -40 687
11 17 23 13 44 -14z m-3183 -233 c-26 -143 -54 -246 -71 -262 -14 -14 -15 -11
-10 30 9 63 23 125 59 275 28 113 32 124 35 87 2 -23 -4 -82 -13 -130z m801
142 c38 -20 84 -74 84 -100 0 -25 -31 -42 -98 -54 -117 -21 -192 3 -208 65
-18 70 36 118 127 113 30 -2 73 -13 95 -24z m2114 -245 c23 -346 16 -653 -14
-695 -8 -10 -20 -15 -30 -11 -14 6 -16 29 -16 194 0 203 17 666 27 723 6 34 6
35 13 9 4 -15 13 -114 20 -220z m984 205 c9 -23 -3 -81 -20 -95 -17 -14 -55 8
-81 47 -16 26 -16 27 6 45 29 24 86 25 95 3z m666 -4 c0 -40 -22 -70 -52 -70
-37 0 -37 24 -1 62 31 33 53 36 53 8z m1293 -2 c46 -24 122 -27 442 -17 226 6
224 9 237 -295 10 -238 3 -299 -41 -348 -25 -28 -33 -31 -156 -45 -177 -20
-426 -7 -497 27 -51 23 -52 25 -78 144 -6 26 -17 132 -25 235 -7 102 -17 205
-21 228 -5 36 -3 45 19 67 32 32 65 33 120 4z m-1603 -18 c31 -31 24 -53 -25
-88 -76 -54 -84 -105 -19 -125 16 -5 99 -12 184 -16 169 -8 202 -17 239 -69
30 -43 57 -159 106 -457 44 -262 67 -369 115 -526 28 -91 23 -160 -14 -184
-32 -21 -147 -34 -306 -35 -74 -1 -169 -5 -210 -9 -155 -17 -210 15 -231 131
-21 117 12 310 61 363 70 74 64 200 -13 291 -31 37 -31 38 -24 429 5 261 7
291 23 302 28 20 91 16 114 -7z m-208 -32 c8 -21 -2 -38 -21 -38 -27 0 -33 12
-14 32 19 21 29 23 35 6z m-7007 -171 c20 -43 54 -61 148 -81 42 -8 90 -22
106 -31 28 -14 29 -16 20 -55 -5 -23 -39 -99 -74 -170 -36 -70 -65 -131 -65
-136 0 -4 -10 -21 -23 -38 -36 -48 -80 -130 -132 -247 -47 -106 -90 -168 -106
-152 -4 4 -10 114 -14 243 -3 129 -10 280 -16 335 -11 109 -4 163 32 239 19
41 88 126 102 126 3 0 13 -15 22 -33z m6982 -153 c6 -111 -10 -292 -28 -326
-12 -22 -35 -23 -43 -2 -16 43 10 411 34 469 l13 30 9 -30 c5 -16 11 -80 15
-141z m1613 136 c6 -12 15 -71 21 -133 5 -62 10 -125 11 -142 4 -45 -24 -43
-77 6 -80 74 -118 182 -85 236 32 50 110 70 130 33z m-2573 -117 c29 -71 7
-323 -29 -323 -22 0 -29 60 -23 180 9 190 20 219 52 143z m-2239 -18 c40 -33
58 -79 44 -109 -8 -19 -23 -25 -79 -34 -37 -6 -78 -14 -90 -18 -35 -10 -73 35
-73 86 0 76 21 94 114 98 45 2 59 -2 84 -23z m4517 -24 c17 -10 66 -54 110
-97 80 -78 81 -81 182 -294 97 -207 133 -303 152 -401 l8 -47 -86 -6 c-47 -3
-238 -7 -424 -8 -288 -2 -340 0 -347 12 -25 38 8 208 58 307 12 22 35 94 51
160 52 203 128 344 206 379 40 18 55 17 90 -5z m-5425 -72 c13 -24 7 -51 -78
-308 -31 -96 -63 -176 -71 -179 -24 -8 3 121 59 288 10 30 28 89 40 130 30
101 32 104 50 69z m5170 -22 c0 -27 -26 -67 -44 -67 -23 0 -25 38 -4 65 24 31
48 32 48 2z m-1671 -68 c13 -38 15 -146 2 -153 -14 -9 -43 31 -44 61 -1 15 0
49 1 76 2 56 24 64 41 16z m-6628 -6 c11 -13 14 -93 14 -422 l0 -406 -53 -125
c-58 -135 -76 -168 -133 -245 -21 -27 -57 -93 -82 -145 -24 -52 -61 -117 -81
-145 -20 -27 -54 -78 -76 -111 -38 -58 -296 -314 -382 -378 -20 -15 -70 -42
-110 -60 -40 -17 -85 -40 -101 -50 -36 -24 -48 -14 -81 69 -14 35 -46 93 -70
129 -65 95 -81 176 -73 371 8 184 28 254 95 343 31 41 99 95 106 84 2 -4 -13
-48 -35 -98 l-40 -89 3 -142 c3 -125 5 -145 24 -170 12 -15 32 -29 46 -31 43
-5 44 18 7 216 -21 114 13 193 146 332 118 125 129 143 149 240 28 134 74 220
118 220 24 0 23 -24 -8 -187 -29 -157 -29 -197 3 -201 33 -5 51 32 67 140 15
99 20 118 36 118 19 0 32 -76 41 -236 6 -132 13 -184 29 -226 23 -63 61 -104
86 -94 19 7 17 31 -12 181 -15 72 -18 143 -19 351 0 310 -2 304 97 304 42 0
58 4 58 14 0 7 24 47 53 87 62 85 78 125 70 172 -7 45 21 138 53 176 30 36 36
37 55 14z m6728 -72 c15 -27 29 -128 21 -142 -14 -22 -44 41 -48 102 -5 60 7
78 27 40z m338 -88 c-8 -140 -33 -274 -54 -290 -42 -32 -101 -7 -133 57 -31
61 -27 104 16 148 19 20 51 63 71 97 47 79 62 95 86 95 19 0 20 -5 14 -107z
m1115 72 c9 -21 5 -44 -26 -139 -20 -64 -42 -118 -48 -122 -21 -13 -47 33 -41
74 6 42 82 212 95 212 5 0 14 -11 20 -25z m-8682 -55 c0 -16 -18 -68 -41 -116
-33 -70 -58 -104 -138 -187 -54 -56 -109 -122 -121 -147 -34 -67 -89 -144
-174 -245 -42 -49 -110 -146 -150 -215 -96 -163 -98 -168 -141 -290 -35 -98
-38 -115 -42 -245 l-5 -140 47 -130 c50 -141 54 -188 18 -193 -41 -6 -151 117
-214 238 -19 36 -23 61 -23 125 0 67 9 108 52 252 64 212 82 253 163 373 126
186 164 237 279 375 64 77 134 165 156 195 23 30 49 62 59 70 10 8 53 67 95
130 77 114 152 196 170 185 6 -4 10 -19 10 -35z m5099 -53 c8 -11 6 -18 -9
-32 -27 -24 -47 -8 -31 24 14 24 24 26 40 8z m1987 -156 c144 -97 246 -181
378 -309 183 -179 295 -357 245 -388 -7 -4 -83 67 -185 174 -240 249 -391 372
-596 486 -79 43 -98 68 -73 96 19 21 48 30 86 25 14 -2 79 -40 145 -84z
m-6170 42 c9 -34 9 -92 -1 -213 -9 -115 5 -275 40 -453 29 -149 34 -306 15
-497 -9 -98 -21 -153 -55 -255 -50 -150 -60 -212 -46 -275 5 -25 13 -112 16
-195 6 -127 5 -158 -10 -200 -36 -106 -97 -126 -159 -54 -19 23 -42 63 -50 88
-42 128 -69 618 -64 1151 l3 365 42 97 c23 54 69 144 102 201 32 57 78 140
100 185 23 45 46 82 51 82 5 0 13 -12 16 -27z m6832 11 c45 -31 15 -114 -42
-114 -29 0 -66 43 -66 76 0 26 34 54 65 54 11 0 31 -7 43 -16z m-4303 -226
c-26 -99 -124 -324 -132 -302 -5 15 94 322 114 353 25 38 35 11 18 -51z m3057
5 c-10 -26 -10 -24 -11 22 0 42 2 46 11 28 7 -15 7 -30 0 -50z m288 11 c17
-14 57 -59 90 -99 51 -62 57 -74 42 -79 -46 -15 -147 45 -194 116 -27 40 -35
68 -21 81 14 15 53 6 83 -19z m-1951 -37 c5 -13 7 -36 4 -53 -6 -31 -69 -124
-84 -124 -19 0 -31 49 -25 94 13 82 84 138 105 83z m812 -42 c59 -38 77 -127
71 -343 -2 -73 -5 -86 -27 -107 -30 -31 -49 -31 -76 -4 -18 18 -20 29 -16 78
3 31 13 91 22 134 28 127 22 133 -150 177 -130 34 -176 36 -228 11 -24 -12
-51 -21 -60 -21 -10 0 -33 -7 -53 -15 -47 -20 -64 -65 -72 -194 -7 -102 -7
-105 -24 -80 -28 44 -108 242 -108 270 0 32 34 77 69 91 14 5 112 12 216 14
105 3 217 8 250 13 81 12 143 4 186 -24z m2037 -23 c6 -58 -38 -85 -60 -37
-16 36 4 78 35 73 17 -2 23 -11 25 -36z m-643 8 c18 -11 58 -52 89 -90 45 -56
53 -70 38 -70 -41 0 -192 145 -177 170 9 14 13 13 50 -10z m-1697 -92 c19 -19
15 -26 -19 -33 -38 -9 -58 7 -39 30 15 18 41 20 58 3z m-6031 -107 c-14 -20
-57 -80 -97 -132 -40 -52 -86 -121 -102 -154 -53 -105 -121 -215 -134 -215
-31 0 -46 33 -42 89 7 96 37 140 250 369 64 69 142 120 146 97 2 -9 -7 -33
-21 -54z m7443 19 c96 -16 210 -51 210 -65 0 -14 -36 -48 -68 -65 -29 -14
-164 -15 -218 -2 -21 6 -95 18 -164 27 -131 17 -176 14 -299 -20 -131 -36
-266 -29 -307 16 -19 21 -19 21 10 44 35 28 79 43 198 66 78 15 132 17 333 14
132 -2 269 -9 305 -15z m427 -125 c23 -14 50 -39 58 -55 17 -32 51 -53 162
-94 122 -46 196 -113 173 -155 -8 -16 -20 -21 -48 -21 -53 1 -110 30 -199 102
-43 35 -113 88 -156 118 -75 53 -96 82 -83 115 8 22 44 18 93 -10z m-3942 -75
c4 -6 1 -18 -6 -26 -11 -13 -14 -13 -27 0 -8 8 -11 19 -8 25 9 14 33 14 41 1z
m1995 0 c0 -5 -7 -7 -15 -4 -8 4 -15 8 -15 10 0 2 7 4 15 4 8 0 15 -4 15 -10z
m774 -90 c154 -45 278 -64 401 -64 120 1 297 25 366 50 82 29 137 35 175 19
39 -16 49 -34 40 -70 -10 -39 -43 -62 -109 -74 -34 -6 -115 -23 -180 -36 -206
-44 -330 -51 -499 -32 -178 21 -256 46 -298 93 -30 34 -40 87 -24 128 8 21 9
21 128 -14z m-849 -14 c11 -3 79 -12 150 -21 174 -21 327 -46 342 -57 16 -13
7 -33 -22 -46 -14 -6 -78 -14 -142 -17 -94 -5 -129 -3 -173 10 -30 9 -74 20
-98 24 -42 8 -92 45 -113 84 -12 22 -2 39 19 33 10 -2 26 -7 37 -10z m-1080
-10 c101 -28 298 -133 310 -166 6 -15 -49 -69 -71 -70 -6 0 -16 11 -22 26 -14
30 -57 49 -129 58 -31 4 -72 19 -100 36 -28 17 -80 36 -123 45 -83 17 -130 33
-130 45 0 4 17 15 38 23 47 20 161 21 227 3z m-3602 -173 c-6 -152 6 -415 33
-743 17 -207 35 -331 64 -423 11 -34 20 -68 20 -74 0 -19 -29 -16 -123 11 -89
26 -192 39 -427 56 -271 19 -402 51 -495 121 -74 57 -60 91 67 155 40 20 84
48 98 63 14 15 48 43 75 63 63 46 207 194 310 318 67 81 112 144 247 348 9 14
26 65 38 114 24 93 49 138 80 138 17 0 18 -9 13 -147z m2834 101 c2 -6 -12
-30 -31 -53 -62 -74 -56 -111 16 -111 46 0 70 11 121 56 47 43 61 43 52 4 -8
-38 12 -73 58 -97 25 -14 66 -19 197 -23 l165 -5 -60 -34 c-33 -18 -71 -40
-85 -47 -15 -7 -70 -18 -123 -24 -174 -20 -318 8 -404 77 -44 36 -73 85 -73
126 0 35 7 47 54 94 44 44 60 54 82 51 15 -2 29 -8 31 -14z m5493 -30 c138
-31 230 -30 298 5 24 12 65 25 92 28 61 7 243 -24 237 -41 -7 -22 -55 -34
-182 -45 -71 -6 -161 -16 -200 -21 -106 -14 -306 -12 -466 5 -78 8 -144 17
-147 19 -8 8 9 26 41 42 36 19 163 44 192 38 11 -2 72 -16 135 -30z m-4048
-34 c29 -11 72 -35 96 -54 67 -54 141 -66 390 -66 234 0 352 15 441 55 29 14
55 25 58 25 2 0 12 -17 21 -37 13 -31 17 -70 17 -200 0 -157 1 -162 24 -187
13 -14 43 -35 65 -46 49 -23 189 -60 232 -60 49 0 61 -22 35 -64 -12 -18 -29
-40 -38 -47 -9 -8 -31 -38 -50 -66 -37 -59 -54 -64 -120 -38 -56 21 -156 35
-263 35 -139 0 -200 13 -257 53 -106 76 -198 105 -363 117 -69 4 -155 14 -192
20 -74 13 -172 9 -236 -10 -33 -10 -45 -10 -57 0 -13 11 -13 15 1 41 8 16 19
29 24 29 5 0 17 14 26 32 17 34 18 53 14 298 -2 149 -1 155 20 172 28 23 47
23 112 -2z m2278 -229 c12 -121 8 -131 -66 -151 -42 -12 -50 -11 -92 10 -30
15 -72 25 -118 28 -96 6 -142 -17 -186 -94 -50 -90 -56 -91 -337 -60 -334 38
-356 52 -368 233 -9 147 28 199 119 167 24 -8 94 -24 156 -35 214 -36 449 -20
665 46 48 14 115 32 150 39 l62 13 3 -46 c1 -25 7 -93 12 -150z m-2494 65 c15
-39 -56 -114 -181 -191 -44 -27 -91 -57 -104 -67 -26 -19 -66 -24 -76 -8 -18
30 87 140 220 228 80 52 130 66 141 38z m-401 -46 c0 -22 -29 -18 -33 3 -3 14
1 18 15 15 10 -2 18 -10 18 -18z m-108 -26 c-3 -3 -12 -4 -19 -1 -8 3 -5 6 6
6 11 1 17 -2 13 -5z m-984 -34 c75 -28 144 -74 167 -112 11 -18 20 -36 20 -40
0 -16 -43 -7 -83 16 -23 13 -66 31 -95 41 -71 23 -112 58 -112 97 0 34 6 34
103 -2z m-1916 -51 c32 -43 54 -59 145 -105 135 -68 291 -130 387 -155 85 -22
261 -26 388 -8 148 20 362 86 522 160 76 35 87 38 116 28 46 -17 65 -7 65 34
0 53 39 77 60 37 6 -11 13 -49 17 -85 5 -60 4 -68 -22 -105 -30 -43 -44 -54
-210 -174 -133 -95 -225 -146 -325 -179 -226 -75 -593 -104 -740 -59 -94 29
-201 79 -323 151 -58 34 -123 68 -144 74 -96 27 -108 73 -59 222 20 59 36 120
36 136 0 40 17 79 35 79 8 0 32 -23 52 -51z m3423 -28 c16 -31 12 -57 -14 -89
-59 -69 -306 -165 -306 -118 0 23 83 95 186 162 55 35 104 64 111 64 7 0 17
-9 23 -19z m-474 -82 c19 -20 7 -51 -29 -71 -30 -17 -562 -16 -625 1 -41 12
-82 41 -82 60 0 19 155 29 432 27 251 -1 289 -3 304 -17z m-1057 -35 c32 -19
54 -51 46 -64 -10 -15 -68 -12 -93 6 -26 18 -45 51 -37 64 9 15 54 12 84 -6z
m221 -94 c30 -30 27 -77 -6 -92 -31 -14 -65 1 -97 43 -15 22 -17 30 -8 48 16
29 83 29 111 1z m390 -49 c137 -9 180 -22 180 -55 0 -65 -99 -102 -252 -94
-114 6 -179 31 -203 78 -15 30 -15 33 0 50 28 31 74 34 275 21z m1350 -85 c42
-8 105 -25 141 -40 36 -14 76 -26 88 -26 86 0 89 -92 5 -156 -38 -30 -54 -23
-54 23 0 33 -15 36 -93 19 -173 -37 -229 -40 -576 -39 -374 2 -420 8 -480 59
-35 29 -37 42 -16 85 18 33 43 45 125 61 147 27 731 37 860 14z m-1060 -56 c0
-19 -81 -99 -95 -94 -28 11 -25 36 9 70 33 33 86 47 86 24z m-4905 -46 c20 -8
45 -56 45 -88 0 -32 -29 -106 -42 -106 -26 0 -59 159 -38 185 14 17 13 17 35
9z m243 -154 c22 -16 52 -48 66 -72 25 -45 51 -126 42 -135 -3 -3 -17 4 -33
14 -15 11 -55 34 -88 52 -79 44 -113 77 -121 119 -8 41 4 52 57 52 24 0 49
-10 77 -30z"/>
<path d="M4555 8135 c-5 -2 -52 -9 -104 -14 -105 -12 -151 -32 -129 -58 13
-17 6 -17 252 10 108 12 137 25 99 45 -21 12 -103 23 -118 17z"/>
<path d="M4306 4688 c-8 -13 -22 -54 -31 -92 -29 -123 -44 -139 -140 -151 -48
-6 -55 -11 -155 -113 -133 -135 -195 -183 -281 -217 -102 -40 -144 -93 -123
-154 8 -22 15 -26 44 -23 37 3 113 3 190 -1 36 -1 67 9 150 48 95 45 112 50
176 50 91 0 105 11 140 119 29 85 67 136 102 136 24 0 134 140 164 208 26 58
33 132 16 156 -21 27 -46 10 -113 -74 -62 -78 -89 -100 -122 -100 -29 0 -29
14 2 97 26 69 30 123 8 130 -6 2 -19 -6 -27 -19z"/>
<path d="M4518 3643 c-67 -52 -104 -133 -60 -133 19 0 82 61 101 97 13 26 15
63 3 63 -5 0 -25 -12 -44 -27z"/>
<path d="M11140 3592 c-61 -60 -74 -156 -35 -247 33 -77 122 -116 183 -80 90
54 106 253 27 332 -29 29 -40 33 -85 33 -47 0 -56 -4 -90 -38z"/>
<path d="M1690 1575 c0 -8 7 -15 15 -15 8 0 15 7 15 15 0 8 -7 15 -15 15 -8 0
-15 -7 -15 -15z"/>
<path d="M8505 2110 c-135 -12 -195 -21 -195 -30 0 -14 30 -40 53 -44 12 -3
43 -8 69 -11 31 -4 59 -16 80 -33 29 -25 39 -27 122 -27 86 0 96 3 196 46 58
26 115 50 128 54 26 7 29 27 6 46 -13 10 -36 11 -122 2 -66 -7 -128 -8 -162
-3 -62 10 -66 10 -175 0z"/>
<path d="M3620 12056 c0 -14 29 -28 95 -45 61 -16 71 -15 50 9 -28 31 -145 61
-145 36z"/>
<path d="M3736 11372 c-9 -16 23 -49 121 -128 54 -43 141 -119 193 -169 128
-124 160 -145 160 -105 0 38 28 20 135 -86 112 -112 125 -132 125 -192 0 -43
28 -94 65 -118 23 -15 28 -15 36 -3 5 8 9 19 9 26 0 6 10 19 21 27 l22 15 -35
73 c-46 97 -130 206 -279 363 -154 162 -218 217 -294 254 -126 61 -164 47
-104 -37 l34 -47 -30 19 c-17 10 -41 29 -55 41 -30 27 -102 75 -112 75 -4 0
-9 -4 -12 -8z m310 -186 c10 -8 16 -17 13 -20 -3 -4 -17 2 -30 13 -27 23 -13
28 17 7z m93 -90 c23 -37 28 -57 9 -38 -7 7 -22 12 -35 12 -25 0 -39 21 -29
45 9 25 33 17 55 -19z"/>
<path d="M4230 11359 c20 -36 160 -116 160 -91 0 15 -65 69 -110 92 -51 26
-64 26 -50 -1z"/>
<path d="M4360 11374 c0 -18 27 -48 83 -92 35 -28 87 -73 115 -101 47 -47 72
-62 72 -43 0 19 -83 107 -160 171 -75 63 -110 83 -110 65z"/>
<path d="M3476 11324 c-22 -58 6 -155 64 -221 22 -25 67 -98 100 -162 33 -64
66 -127 74 -141 8 -14 26 -51 41 -83 19 -41 44 -72 88 -110 146 -125 166 -147
161 -176 -6 -32 15 -75 40 -79 10 -2 28 6 41 18 29 27 69 24 73 -6 2 -14 -7
-29 -24 -43 l-27 -21 35 -42 c20 -24 97 -105 173 -180 l137 -138 70 0 c69 0
72 -1 114 -40 44 -40 67 -49 79 -30 14 23 -11 76 -71 151 -75 93 -94 127 -94
169 0 47 -21 79 -103 155 -62 57 -77 78 -86 115 -22 91 -50 127 -221 286 -159
148 -305 302 -324 345 -30 65 71 14 135 -69 28 -35 144 -162 257 -281 114
-119 240 -257 280 -305 50 -59 86 -93 110 -102 61 -25 74 -33 146 -90 76 -61
103 -66 124 -21 24 50 7 69 -88 94 -36 10 -37 13 -24 47 6 17 4 18 -22 12 -84
-21 -79 -22 -146 45 -35 35 -110 120 -167 189 -118 142 -633 658 -700 701 -78
50 -101 33 -59 -42 12 -21 19 -42 15 -45 -9 -10 -68 31 -110 76 -39 42 -80 53
-91 24z m388 -510 c8 -21 -12 -17 -24 6 -8 16 -8 18 4 14 8 -3 17 -12 20 -20z
m214 -278 c3 -12 -1 -17 -10 -14 -7 3 -15 13 -16 22 -3 12 1 17 10 14 7 -3 15
-13 16 -22z m136 -119 c8 -12 7 -20 -1 -28 -16 -16 -33 -2 -33 27 0 28 17 28
34 1z m214 -321 c35 -18 66 -52 54 -60 -10 -6 -84 43 -97 63 -9 15 11 14 43
-3z"/>
<path d="M4535 11121 c-3 -5 -1 -12 5 -16 5 -3 10 1 10 9 0 18 -6 21 -15 7z"/>
<path d="M4777 10953 c-3 -4 8 -39 24 -78 15 -38 28 -87 28 -107 1 -28 6 -38
21 -43 32 -10 52 12 44 49 -14 68 -102 203 -117 179z"/>
<path d="M4680 10938 c0 -9 7 -19 16 -22 25 -10 27 -1 4 19 -17 15 -20 16 -20
3z"/>
<path d="M4254 10905 c-6 -16 9 -34 29 -35 13 0 8 27 -8 40 -12 10 -16 9 -21
-5z"/>
<path d="M4360 10784 c0 -5 7 -19 15 -30 8 -10 15 -14 15 -8 0 5 -7 19 -15 30
-8 10 -15 14 -15 8z"/>
<path d="M4860 10651 c0 -24 22 -42 39 -32 10 7 11 13 2 30 -14 26 -41 28 -41
2z"/>
<path d="M4706 10515 c4 -8 13 -15 21 -15 13 0 13 3 3 15 -7 8 -16 15 -21 15
-5 0 -6 -7 -3 -15z"/>
<path d="M4614 10496 c-14 -38 47 -81 65 -47 11 20 4 34 -26 50 -28 14 -32 14
-39 -3z"/>
<path d="M4965 10490 c-3 -6 13 -50 37 -100 35 -73 47 -89 66 -90 32 0 28 21
-20 109 -48 88 -67 107 -83 81z"/>
<path d="M5520 9643 c1 -16 9 -43 19 -62 l18 -34 7 42 c7 45 -6 81 -29 81 -10
0 -15 -10 -15 -27z"/>
<path d="M1216 9605 c-10 -28 -7 -45 9 -45 22 0 30 29 13 47 -14 13 -16 13
-22 -2z"/>
<path d="M3903 1170 c-107 -22 -200 -90 -239 -175 -18 -38 -24 -67 -24 -125 0
-91 10 -131 49 -192 55 -87 145 -133 283 -145 89 -8 139 12 203 78 60 63 80
62 117 -5 17 -32 39 -56 61 -67 54 -28 97 -83 97 -125 0 -37 -17 -58 -89 -112
-40 -30 -55 -24 -73 30 -22 64 -91 111 -172 116 -48 2 -68 -1 -93 -17 -48 -30
-90 -95 -103 -157 -13 -64 -31 -76 -65 -44 -31 29 -41 75 -24 107 13 24 11 28
-25 59 -76 66 -126 61 -126 -12 0 -38 -15 -74 -30 -74 -20 0 -50 45 -50 76 0
26 7 36 33 52 43 25 73 86 61 121 -13 37 -47 51 -97 39 -95 -21 -143 -96 -135
-212 3 -57 9 -73 51 -136 32 -47 64 -81 95 -101 54 -34 308 -119 356 -119 45
0 66 26 66 81 0 66 20 89 79 89 37 0 60 -8 107 -36 84 -51 101 -57 116 -38 7
9 26 30 42 47 l29 32 21 -29 c12 -16 31 -41 43 -55 l22 -26 1 42 c0 58 33 141
75 191 80 93 79 153 -5 245 -41 45 -50 62 -50 91 0 68 -58 99 -137 72 -25 -9
-48 -16 -50 -16 -10 0 -33 74 -48 154 -20 110 -34 144 -81 201 -63 77 -185
117 -291 95z m27 -116 c0 -3 -16 -19 -36 -36 -72 -63 -95 -146 -68 -248 24
-92 9 -126 -35 -79 -30 32 -63 108 -69 157 -12 109 93 232 185 214 13 -2 23
-6 23 -8z m181 -64 c10 -6 30 -33 44 -60 30 -59 35 -149 9 -171 -14 -11 -22
-6 -61 39 -25 29 -49 52 -55 52 -6 0 -26 -14 -45 -31 -37 -32 -56 -34 -61 -5
-6 29 7 64 34 94 13 15 33 42 44 60 21 34 53 42 91 22z m-76 -320 c0 -8 -10
-16 -22 -18 -18 -3 -23 2 -23 18 0 16 5 21 23 18 12 -2 22 -10 22 -18z"/>
<path d="M3782 488 c-22 -22 -14 -38 19 -38 26 0 30 3 27 22 -3 26 -28 34 -46
16z"/>
<path d="M4301 461 c-12 -8 -12 -12 -2 -25 20 -24 43 -20 39 6 -3 25 -17 32
-37 19z"/>
<path d="M4119 54 c-18 -22 1 -48 39 -52 23 -2 34 2 42 18 6 12 9 28 6 36 -7
19 -70 18 -87 -2z"/>
</g>
</svg>
