<?xml version="1.0" standalone="no"?>
<!DOCTYPE svg PUBLIC "-//W3C//DTD SVG 20010904//EN"
 "http://www.w3.org/TR/2001/REC-SVG-20010904/DTD/svg10.dtd">
<svg version="1.0" xmlns="http://www.w3.org/2000/svg"
 width="640.000000pt" height="1280.000000pt" viewBox="0 0 640.000000 1280.000000"
 preserveAspectRatio="xMidYMid meet">
<metadata>
Created by potrace 1.15, written by Peter Selinger 2001-2017
</metadata>
<g transform="translate(0.000000,1280.000000) scale(0.100000,-0.100000)"
fill="#000000" stroke="none">
<path d="M2567 12780 c-129 -34 -338 -155 -392 -226 -41 -54 -37 -89 18 -166
89 -126 155 -173 305 -217 l69 -21 13 -88 c10 -75 10 -117 -5 -279 -16 -185
-15 -215 10 -275 7 -17 -5 -18 -166 -18 -197 -1 -410 -14 -469 -30 -22 -6 -44
-18 -48 -28 -13 -26 -29 -117 -53 -317 -12 -99 -23 -181 -24 -182 -1 -2 -44
-11 -97 -22 -111 -22 -144 -37 -186 -85 -27 -32 -31 -43 -37 -133 -20 -255 15
-541 70 -590 23 -20 102 -48 238 -83 l47 -13 0 -136 c0 -145 -13 -284 -32
-329 -14 -33 -11 -56 12 -107 9 -22 25 -65 35 -96 17 -55 17 -56 -6 -100 -21
-39 -24 -57 -23 -149 1 -111 21 -211 51 -257 9 -14 41 -37 70 -50 63 -27 72
-43 49 -90 -14 -29 -32 -41 -114 -79 -53 -25 -104 -52 -112 -59 -38 -34 -301
-121 -500 -166 -113 -26 -228 -63 -291 -95 -25 -12 -76 -32 -112 -44 -37 -12
-69 -26 -73 -31 -3 -5 -21 -16 -39 -23 -67 -28 -185 -160 -185 -207 0 -9 -7
-22 -15 -29 -8 -6 -14 -15 -13 -18 1 -4 -9 -28 -21 -54 -12 -26 -21 -63 -19
-81 1 -22 -6 -43 -20 -62 -57 -73 -94 -304 -122 -765 -11 -197 4 -755 30
-1065 33 -394 42 -739 37 -1455 -3 -488 -9 -737 -21 -900 -10 -136 -18 -411
-22 -695 -2 -258 -11 -594 -19 -745 -19 -365 -39 -1263 -33 -1481 5 -182 26
-297 68 -378 36 -72 105 -114 281 -172 l124 -42 475 -1 c330 0 497 3 546 12
107 18 500 17 689 -3 88 -9 246 -20 350 -25 105 -5 285 -14 400 -21 138 -7
319 -8 530 -3 176 4 374 8 440 9 66 2 131 5 145 8 54 12 229 36 300 42 77 6
259 33 270 40 3 2 62 15 130 29 140 29 232 58 268 87 14 10 32 19 40 19 9 0
46 18 82 39 37 22 101 54 144 71 149 59 219 108 256 179 10 20 28 44 40 54 21
18 22 24 16 110 -4 51 -13 137 -21 192 -39 280 -40 313 -37 1130 1 440 7 985
12 1210 5 226 14 689 20 1030 18 1104 32 1461 80 1955 17 168 35 352 40 409
14 148 12 320 -5 511 -17 184 -32 285 -44 309 -5 9 -23 58 -40 109 -66 199
-169 382 -318 567 -199 248 -280 287 -643 315 -80 6 -174 8 -210 4 -36 -3
-116 -1 -179 5 -94 9 -121 15 -153 36 -60 40 -69 62 -71 167 -2 82 1 100 25
150 15 32 47 79 72 106 125 134 105 358 -40 449 -149 94 -138 84 -150 143 -14
72 -27 438 -18 523 l7 67 63 0 c73 0 151 15 177 34 16 12 18 34 21 167 2 85
-1 190 -6 234 -9 79 -24 228 -33 334 -5 64 -23 86 -107 137 -35 21 -60 44 -63
57 -2 12 -12 53 -20 91 -33 147 -97 293 -145 328 -14 10 -50 25 -79 33 -73 19
-422 39 -556 32 -96 -5 -106 -4 -80 7 55 24 58 34 47 153 -13 153 2 305 32
325 6 4 87 4 181 1 142 -5 192 -2 300 15 72 11 168 23 215 27 80 5 163 16 535
65 415 55 393 53 489 41 113 -15 159 -40 221 -121 48 -63 105 -163 105 -185 0
-8 12 -23 26 -34 25 -20 27 -20 56 -3 40 22 146 140 180 199 15 26 43 65 62
87 95 111 127 153 133 174 17 68 -195 293 -309 327 -28 8 -109 26 -180 41
-122 24 -135 25 -264 15 -74 -6 -199 -20 -278 -31 -157 -23 -303 -24 -298 -2
1 9 -37 13 -160 14 -211 3 -211 3 -568 -12 -168 -7 -341 -13 -384 -12 -142 2
-287 31 -528 107 -249 79 -358 91 -491 55z m334 -201 c145 -57 219 -73 550
-123 370 -55 404 -59 584 -60 238 -1 779 27 1216 65 166 14 289 3 365 -32 50
-24 120 -96 130 -134 8 -32 -16 -61 -58 -70 -27 -6 -36 -2 -73 37 -27 28 -55
48 -76 52 -100 20 -298 28 -559 23 -243 -5 -308 -9 -440 -31 -205 -35 -385
-54 -550 -61 -74 -3 -201 -13 -281 -22 -136 -15 -157 -15 -290 1 -79 9 -165
16 -191 16 -46 0 -47 -1 -64 -46 -15 -39 -16 -69 -11 -243 7 -213 5 -221 -44
-221 -14 0 -62 -9 -105 -19 -118 -30 -212 -40 -230 -26 -14 10 -15 24 -4 126
7 63 13 155 13 206 1 78 -3 98 -24 139 -31 61 -154 162 -270 223 -130 68 -140
82 -91 128 41 38 118 74 212 99 124 33 145 31 291 -27z m1165 -1274 c58 -44
105 -147 119 -258 l7 -54 -139 -22 c-76 -12 -212 -26 -303 -31 -307 -17 -1094
-33 -1295 -26 -219 8 -423 22 -449 32 -20 8 -21 23 -1 38 13 9 14 17 4 44 -6
18 -9 66 -7 107 3 70 6 77 39 110 22 23 47 37 69 40 106 15 276 16 455 4 237
-17 414 -16 545 1 272 36 477 49 699 44 220 -4 225 -4 257 -29z m264 -567 c0
-24 12 -88 26 -143 14 -55 28 -110 31 -123 3 -13 -4 -43 -17 -70 -13 -26 -28
-58 -34 -72 -15 -32 -64 -49 -143 -49 l-62 -1 -11 56 c-12 59 -17 385 -5 403
3 6 21 11 38 11 18 1 59 7 92 14 88 20 85 21 85 -26z m-337 -170 c4 -90 10
-193 13 -230 l7 -68 -44 0 c-24 0 -99 -7 -167 -16 -67 -9 -129 -13 -137 -10
-10 3 -15 20 -15 45 0 22 -5 51 -11 65 -16 34 3 322 22 341 15 15 142 32 255
34 l71 1 6 -162z m-476 -35 c1 -78 7 -161 13 -185 6 -23 13 -59 16 -79 6 -47
7 -47 -234 -59 -104 -5 -193 -10 -198 -11 -29 -5 -32 6 -38 129 -3 70 -9 171
-12 225 -5 71 -3 101 6 112 11 13 45 15 229 12 l216 -3 2 -141z m-1493 105 c5
-34 11 -121 23 -330 5 -98 4 -118 -8 -118 -28 1 -304 30 -336 36 -18 3 -38 15
-44 25 -5 11 -13 95 -16 187 -5 150 -4 169 11 185 10 9 27 17 39 18 12 0 78 6
147 13 190 20 178 21 184 -16z m430 -11 c12 -48 36 -275 36 -338 0 -104 8 -99
-146 -99 -154 0 -154 0 -154 92 0 29 -5 69 -10 88 -15 50 -23 210 -12 245 l8
30 125 5 c68 3 129 4 136 2 6 -2 14 -13 17 -25z m461 11 c25 -118 36 -217 33
-323 l-3 -120 -133 -3 c-78 -1 -140 2 -152 8 -25 13 -37 61 -45 185 -4 55 -13
131 -21 168 -24 117 -38 107 151 107 163 0 165 0 170 -22z m971 -812 c34 -15
76 -42 93 -60 29 -30 32 -40 45 -149 10 -88 20 -130 39 -167 37 -71 80 -122
132 -155 25 -15 45 -32 46 -36 0 -5 1 -38 2 -73 0 -61 -2 -67 -36 -105 -20
-23 -37 -48 -37 -57 0 -9 -13 -31 -28 -49 -26 -28 -30 -43 -35 -121 -9 -110 3
-181 43 -276 52 -125 82 -178 127 -228 64 -71 64 -71 608 -146 272 -37 414
-63 461 -83 129 -58 257 -280 354 -616 56 -193 80 -309 109 -510 37 -266 37
-326 -4 -700 -22 -202 -53 -495 -70 -660 -9 -82 -20 -312 -25 -510 -6 -198
-14 -432 -19 -520 -5 -88 -10 -403 -10 -700 -2 -627 -16 -1373 -31 -1560 -5
-71 -14 -188 -20 -260 -5 -71 -14 -314 -20 -540 -13 -514 -20 -599 -55 -671
-32 -65 -121 -181 -167 -216 -18 -14 -59 -51 -92 -82 -38 -36 -67 -56 -83 -56
-13 0 -41 -9 -62 -20 -47 -24 -133 -43 -313 -70 -76 -11 -198 -29 -270 -40
-175 -26 -416 -56 -553 -69 -691 -65 -1202 -85 -1465 -57 -85 9 -209 28 -275
42 -72 15 -184 29 -280 35 -88 5 -209 16 -269 24 -64 9 -234 18 -415 21 l-306
7 -130 62 c-190 92 -316 195 -314 256 0 13 -6 43 -15 65 -13 36 -14 96 -10
430 3 213 7 392 10 396 3 4 37 8 76 8 55 0 75 4 95 20 33 26 75 26 363 -1 206
-19 393 -25 1035 -31 39 -1 203 2 365 6 234 6 319 12 410 29 100 18 155 21
430 22 299 1 320 3 425 27 61 14 139 31 175 38 36 7 80 21 98 31 28 16 55 19
166 19 97 0 136 4 144 13 6 7 23 51 38 97 14 47 37 110 51 140 34 78 40 109
67 386 54 543 71 944 71 1679 0 609 -8 905 -27 980 -5 21 -12 73 -14 115 -3
41 -9 107 -14 145 -5 39 -14 178 -20 310 -12 287 -28 493 -41 538 -12 43 -12
388 1 595 30 486 25 825 -13 898 -31 59 -25 58 -298 51 -209 -6 -288 -13 -492
-42 -518 -76 -518 -76 -872 -85 -217 -6 -494 -6 -765 0 -234 6 -544 8 -690 4
-289 -7 -480 0 -480 20 0 6 9 28 20 49 22 41 26 77 9 94 -29 29 103 185 213
251 54 32 135 63 453 172 263 90 346 127 460 201 123 80 211 164 245 234 19
39 22 58 18 113 -7 87 -51 178 -105 214 -51 35 -93 76 -93 91 0 7 23 46 50 87
70 105 107 229 78 258 -10 10 -9 16 4 28 13 13 15 31 11 94 -7 91 0 126 25
134 10 3 37 24 61 46 67 63 164 86 470 110 63 5 128 12 145 15 17 3 90 7 161
10 172 5 463 23 550 35 120 15 212 7 281 -24z m236 -2405 c29 -23 41 -69 65
-256 13 -102 17 -220 18 -540 1 -225 6 -473 13 -550 6 -77 16 -212 22 -300 23
-350 36 -468 83 -745 l32 -185 -3 -390 c-1 -236 -8 -467 -18 -584 -8 -107 -17
-344 -19 -525 -5 -389 -29 -730 -71 -1016 -38 -256 -61 -295 -199 -321 -170
-32 -390 -51 -679 -58 -277 -7 -310 -10 -322 -25 -12 -16 -20 -17 -106 -6
-100 13 -143 11 -448 -20 -594 -60 -1061 -69 -1664 -33 -92 5 -147 -11 -203
-60 l-35 -31 6 59 c6 55 -3 154 -19 215 -6 22 -5 23 7 9 38 -46 144 -59 270
-34 86 17 87 17 215 -9 97 -19 161 -25 263 -26 74 0 182 -4 240 -10 143 -13
495 -12 561 1 30 6 163 11 299 11 195 0 290 5 465 24 121 14 246 32 278 40 32
7 78 14 102 14 24 0 72 6 107 14 35 8 97 17 139 21 42 3 89 13 104 21 15 8 37
14 49 14 33 0 169 37 242 67 76 30 101 58 143 160 46 112 59 217 72 585 11
336 25 617 40 814 8 105 9 230 5 355 -4 107 -8 210 -8 229 -11 746 -20 907
-62 1150 -8 48 -13 129 -12 185 3 106 -20 267 -51 347 -9 24 -17 63 -18 88 -4
86 -24 185 -51 260 l-27 75 3 245 c7 512 6 522 -38 561 -51 46 -103 47 -277 8
-31 -8 -118 -11 -230 -8 -447 8 -1520 -6 -1635 -21 -125 -17 -458 -18 -585 -1
-55 7 -175 13 -268 13 -92 0 -167 4 -167 8 0 5 5 32 11 61 l11 52 132 -9 c152
-10 386 -9 642 3 99 4 313 4 475 0 429 -12 1379 -11 1469 2 41 5 158 19 260
31 102 11 208 24 235 29 81 14 111 12 137 -8z m-305 -495 c-11 -197 -11 -232
5 -361 9 -78 26 -177 37 -220 12 -44 21 -93 21 -109 0 -17 18 -119 40 -226 34
-167 40 -214 40 -325 0 -71 5 -148 10 -171 20 -88 39 -374 45 -679 3 -176 10
-437 16 -580 10 -223 9 -287 -5 -446 -9 -102 -16 -234 -16 -295 0 -60 -4 -181
-10 -269 -5 -88 -14 -248 -20 -355 -13 -254 -32 -377 -71 -462 -30 -63 -34
-68 -90 -92 -72 -31 -264 -78 -429 -105 -214 -35 -470 -70 -589 -81 -63 -6
-118 -13 -123 -16 -4 -3 -66 -1 -136 5 -105 9 -185 7 -467 -10 -390 -25 -382
-25 -455 -10 -30 6 -161 14 -291 19 -171 6 -241 11 -253 21 -12 10 -43 12
-133 6 -173 -9 -220 -10 -304 -1 -73 8 -75 9 -72 35 2 14 7 244 13 511 6 267
17 573 25 680 48 647 80 1319 79 1670 -1 464 -12 890 -24 965 -6 39 -13 150
-17 247 -5 159 -4 178 11 184 13 5 16 21 16 88 0 45 7 109 16 141 10 37 17
105 18 175 1 72 6 124 14 138 7 12 10 31 7 42 -3 10 -3 29 0 42 6 23 8 23 153
26 86 1 245 -6 384 -17 l238 -20 142 21 c129 19 191 21 643 22 457 1 503 3
532 19 27 14 49 16 130 12 503 -25 610 -27 678 -15 99 18 189 27 198 20 4 -3
1 -104 -6 -224z"/>
<path d="M2440 6876 c-66 -19 -127 -53 -146 -82 -14 -20 -16 -40 -10 -111 8
-114 48 -231 143 -418 88 -175 107 -209 186 -330 55 -85 104 -180 227 -440 67
-144 180 -331 224 -374 42 -40 83 -45 124 -14 24 18 27 27 28 79 1 87 50 438
73 519 31 109 110 333 145 410 18 39 53 101 79 138 26 37 63 102 83 143 34 72
36 81 31 148 -3 39 -11 89 -17 110 -17 57 -100 140 -179 179 -60 29 -75 32
-176 35 l-110 3 -60 -36 c-67 -40 -135 -102 -135 -122 0 -28 -31 -11 -67 38
-21 27 -57 63 -81 79 -80 53 -256 75 -362 46z m848 -270 c2 -51 -2 -83 -17
-120 -11 -28 -34 -98 -52 -156 -50 -167 -107 -308 -148 -369 -49 -71 -108
-128 -120 -115 -27 29 -195 282 -236 354 -27 47 -66 110 -87 142 -40 59 -98
201 -98 241 0 32 18 47 57 47 66 0 141 -104 178 -249 29 -112 87 -211 137
-232 23 -9 32 -9 46 3 9 8 29 19 43 25 57 25 76 67 88 199 6 66 16 136 23 155
29 86 97 151 153 147 30 -3 30 -3 33 -72z"/>
</g>
</svg>
