<?xml version="1.0" standalone="no"?>
<!DOCTYPE svg PUBLIC "-//W3C//DTD SVG 20010904//EN"
 "http://www.w3.org/TR/2001/REC-SVG-20010904/DTD/svg10.dtd">
<svg version="1.0" xmlns="http://www.w3.org/2000/svg"
 width="640.000000pt" height="1280.000000pt" viewBox="0 0 640.000000 1280.000000"
 preserveAspectRatio="xMidYMid meet">
<metadata>
Created by potrace 1.15, written by Peter Selinger 2001-2017
</metadata>
<g transform="translate(0.000000,1280.000000) scale(0.100000,-0.100000)"
fill="#000000" stroke="none">
<path d="M758 12761 c27 -24 41 -43 37 -52 -7 -18 38 -67 73 -80 16 -6 22 -17
22 -39 0 -25 12 -43 60 -88 45 -42 74 -84 116 -162 30 -58 79 -141 109 -185
29 -44 65 -105 80 -135 34 -69 35 -71 67 -111 14 -19 69 -106 121 -194 51 -88
231 -392 399 -675 356 -600 546 -925 603 -1030 22 -41 83 -140 136 -220 53
-80 95 -147 93 -149 -1 -2 -60 4 -131 14 -328 42 -593 77 -758 100 -99 13
-263 34 -365 45 -102 11 -247 29 -322 38 -75 10 -135 16 -134 13 2 -4 33 -56
69 -118 37 -62 84 -148 106 -192 22 -44 45 -82 51 -86 12 -7 140 -221 140
-234 0 -4 10 -21 22 -36 11 -15 40 -60 62 -100 23 -41 91 -156 152 -257 137
-226 229 -385 259 -450 12 -27 29 -56 38 -66 38 -44 333 -538 429 -721 28 -52
63 -111 78 -130 15 -20 49 -74 75 -121 27 -47 61 -107 78 -135 325 -538 783
-1317 905 -1540 69 -125 72 -130 151 -245 33 -47 58 -86 57 -88 -2 -1 -77 9
-167 23 -90 14 -263 39 -384 55 -121 16 -319 43 -440 60 -338 48 -429 59 -434
55 -18 -18 224 -414 1261 -2060 1404 -2230 2083 -3319 2142 -3432 15 -30 34
-41 48 -28 3 3 -1 29 -8 57 -16 60 -128 604 -150 728 -9 47 -13 99 -11 116 3
18 2 36 -3 40 -4 5 -13 27 -19 49 -47 167 -191 888 -191 954 0 28 -4 53 -10
56 -14 8 -29 73 -34 141 -2 33 -14 91 -26 129 -27 90 -100 454 -100 500 0 20
-9 64 -20 98 -29 93 -179 853 -182 922 -1 33 -7 74 -14 90 -41 101 -200 894
-193 959 2 12 -2 30 -8 42 -26 47 -90 344 -79 363 3 5 -3 32 -13 62 -20 57
-74 309 -68 316 5 4 234 -25 302 -39 28 -6 84 -14 125 -18 202 -21 607 -77
694 -96 28 -7 28 -6 21 27 -4 19 -27 90 -52 159 -24 69 -57 170 -74 224 -16
55 -36 113 -45 130 -8 17 -53 144 -99 281 -47 138 -96 283 -110 323 -14 40
-23 82 -20 92 4 11 2 20 -2 20 -16 0 -44 68 -118 285 -40 116 -90 260 -112
320 -84 232 -233 682 -239 725 -4 25 -13 54 -20 65 -33 53 -414 1129 -504
1425 -18 58 -40 121 -50 140 -24 49 -91 232 -86 237 7 7 170 -19 201 -32 17
-7 50 -13 75 -14 74 -3 207 -20 340 -46 69 -13 166 -28 215 -35 50 -6 160 -22
245 -36 85 -14 161 -26 169 -27 12 -2 14 10 12 53 -1 30 -7 75 -12 100 -25
120 -31 182 -21 204 6 13 7 27 3 32 -15 16 -50 187 -101 489 -28 167 -46 460
-30 480 7 8 8 15 3 15 -19 0 -166 668 -203 925 -6 44 -19 113 -27 153 -20 96
-13 143 27 188 17 20 28 40 23 45 -13 13 -369 53 -978 109 -121 11 -267 25
-325 30 -121 12 -443 40 -780 70 -129 11 -284 24 -345 30 -565 51 -1752 140
-1863 140 l-57 -1 43 -38z"/>
</g>
</svg>
