<?xml version="1.0" standalone="no"?>
<!DOCTYPE svg PUBLIC "-//W3C//DTD SVG 20010904//EN"
 "http://www.w3.org/TR/2001/REC-SVG-20010904/DTD/svg10.dtd">
<svg version="1.0" xmlns="http://www.w3.org/2000/svg"
 width="1263.000000pt" height="1280.000000pt" viewBox="0 0 1263.000000 1280.000000"
 preserveAspectRatio="xMidYMid meet">
<metadata>
Created by potrace 1.15, written by Peter Selinger 2001-2017
</metadata>
<g transform="translate(0.000000,1280.000000) scale(0.100000,-0.100000)"
fill="#ffffff" stroke="none">
<path d="M8187 12790 c-1165 -98 -1845 -766 -2081 -2045 -67 -364 -93 -682
-106 -1325 -19 -926 -37 -1057 -190 -1365 -242 -489 -764 -796 -1520 -894
-310 -41 -554 -50 -815 -31 -746 55 -1556 294 -2589 764 -104 47 -190 86 -192
86 -10 0 -2 -119 16 -242 86 -583 429 -1377 905 -2093 270 -407 484 -672 810
-1003 506 -515 1012 -858 1562 -1058 112 -40 372 -111 473 -128 l35 -6 114
-263 c63 -144 130 -294 148 -333 l33 -71 0 -555 0 -555 -430 -426 c-237 -235
-430 -428 -430 -431 0 -2 210 67 468 154 l467 158 333 -304 c184 -167 335
-304 338 -304 2 0 1 6 -1 13 -8 20 -165 628 -165 636 0 4 39 1 88 -6 412 -66
838 -131 840 -128 2 2 -246 145 -551 319 l-554 316 -6 47 c-3 27 -25 302 -48
613 l-43 565 137 266 137 266 167 12 c365 26 641 59 971 117 112 20 205 34
207 32 3 -2 41 -87 85 -188 45 -102 86 -189 91 -194 5 -6 9 -219 9 -515 l1
-506 -398 -392 -398 -393 429 145 429 145 71 -64 c39 -35 174 -159 301 -274
126 -116 231 -209 233 -207 2 1 -31 132 -73 290 -42 158 -74 290 -71 293 5 4
412 -56 721 -108 61 -10 111 -17 113 -15 2 2 -216 128 -485 281 -268 152 -494
283 -502 290 -11 10 -24 143 -56 561 l-43 548 126 247 126 248 111 36 c261 87
642 257 880 393 1341 768 2082 2059 2269 3956 33 326 45 541 53 918 3 169 10
307 14 307 4 0 39 -7 76 -14 261 -55 790 -44 1158 24 221 41 436 113 558 187
52 31 58 38 41 45 -18 8 -770 226 -1409 408 -159 46 -293 86 -297 89 -4 4 383
136 860 295 477 159 871 292 875 296 8 7 -184 65 -378 115 -575 148 -1431 281
-1566 243 -26 -8 -27 -7 -74 138 -188 576 -609 1062 -1160 1337 -221 111 -460
186 -705 222 -131 19 -400 27 -543 15z"/>
</g>
</svg>
